<?xml version="1.0" encoding="UTF-8" standalone="no"?>
<!-- Created with Inkscape (http://www.inkscape.org/) -->

<svg
   width="210mm"
   height="297mm"
   viewBox="0 0 210 297"
   version="1.1"
   id="svg5"
   xml:space="preserve"
   inkscape:version="1.2.2 (b0a8486541, 2022-12-01)"
   sodipodi:docname="glider.svg"
   xmlns:inkscape="http://www.inkscape.org/namespaces/inkscape"
   xmlns:sodipodi="http://sodipodi.sourceforge.net/DTD/sodipodi-0.dtd"
   xmlns="http://www.w3.org/2000/svg"
   xmlns:svg="http://www.w3.org/2000/svg"><sodipodi:namedview
     id="namedview7"
     pagecolor="#ffffff"
     bordercolor="#000000"
     borderopacity="0.25"
     inkscape:showpageshadow="2"
     inkscape:pageopacity="0.0"
     inkscape:pagecheckerboard="0"
     inkscape:deskcolor="#d1d1d1"
     inkscape:document-units="mm"
     showgrid="false"
     inkscape:zoom="1.0897758"
     inkscape:cx="233.53428"
     inkscape:cy="153.70135"
     inkscape:window-width="1920"
     inkscape:window-height="1152"
     inkscape:window-x="1920"
     inkscape:window-y="0"
     inkscape:window-maximized="1"
     inkscape:current-layer="layer1" /><defs
     id="defs2" /><g
     inkscape:label="Layer 1"
     inkscape:groupmode="layer"
     id="layer1"><g
       id="g185"
       transform="translate(-117.60747,-3.3299789)" /><g
       id="g1735"
       transform="translate(0.06739466,12.372436)"
       inkscape:export-filename="glider.png"
       inkscape:export-xdpi="200"
       inkscape:export-ydpi="200"><path
         style="fill:#f6d313;stroke-width:0.264583"
         d="m 124.16192,64.112681 c -2.91706,-0.282858 -3.75938,-0.421573 -3.5065,-0.577455 0.15535,-0.09576 -0.51019,-0.189368 -1.47896,-0.208024 -2.2275,-0.04289 -5.86245,-0.615262 -5.86245,-0.923118 0,-0.128473 -0.35548,-0.233587 -0.78996,-0.233587 -0.82714,0 -3.21546,-0.550627 -3.44338,-0.793872 -0.0728,-0.07765 -2.03729,-0.635246 -4.36562,-1.239094 -2.32834,-0.603848 -4.88818,-1.298898 -5.688545,-1.544555 -0.800364,-0.245658 -2.288645,-0.620691 -3.307291,-0.833409 -1.018646,-0.212717 -2.030677,-0.456671 -2.248959,-0.542119 -0.218281,-0.08545 -0.605234,-0.129578 -0.859896,-0.09807 -0.254661,0.03151 -0.46302,-0.05089 -0.46302,-0.18311 0,-0.291544 -3.909426,-1.18367 -4.253945,-0.970745 -0.729919,0.451115 0.169481,-2.374612 1.175718,-3.693856 0.519978,-0.681726 0.826389,-0.865708 1.255081,-0.753603 0.359672,0.09406 0.651433,-0.0023 0.797533,-0.263353 0.204552,-0.365514 0.490014,-0.338479 2.546226,0.241141 4.566312,1.287187 5.237237,1.473932 6.020012,1.67561 1.401516,0.361093 4.483236,1.364176 4.957346,1.613591 0.25269,0.13293 0.60036,0.24169 0.7726,0.24169 0.40102,0 7.03795,2.632293 10.14505,4.023656 4.83128,2.163448 7.28414,3.42211 7.13602,3.661775 -0.0836,0.135303 0.0174,0.180994 0.22446,0.101532 0.20708,-0.07946 0.56194,0.04096 0.78859,0.267612 0.22665,0.22665 0.52509,0.412092 0.66318,0.412092 0.1381,0 0.39931,0.178593 0.58046,0.396875 0.18116,0.218281 0.28504,0.377819 0.23084,0.354531 -0.0542,-0.02329 -0.51526,-0.08275 -1.02459,-0.132139 z m -39.110217,-8.97618 c -0.710989,-0.497995 -0.722284,-1.219799 -0.04253,-2.717835 0.346342,-0.763267 0.64802,-1.104948 0.892691,-1.011059 0.203256,0.078 0.86151,0.289205 1.462786,0.469352 1.171237,0.350911 1.265182,0.71941 0.30634,1.201617 -0.357219,0.179648 -0.466638,0.344607 -0.271682,0.409592 0.258146,0.08605 0.258808,0.313655 0.0031,1.088275 -0.327748,0.993086 -0.676125,1.250322 -0.8786,0.648742 -0.08786,-0.261035 -0.193873,-0.262623 -0.5031,-0.0075 -0.312007,0.257383 -0.509338,0.240859 -0.969068,-0.08115 z m 1.010219,-2.226421 c 0,-0.14552 -0.12609,-0.264583 -0.280199,-0.264583 -0.15411,0 -0.206614,0.119063 -0.116676,0.264583 0.08994,0.145521 0.216027,0.264584 0.280199,0.264584 0.06417,0 0.116676,-0.119063 0.116676,-0.264584 z M 75.432621,51.846139 c -0.04953,-0.148605 -0.475939,-0.297433 -0.947564,-0.330729 -0.471626,-0.0333 -0.857738,-0.189522 -0.858027,-0.34717 -0.0012,-0.632307 0.209044,-0.628023 2.598821,0.05297 0.279132,0.07954 0.269524,0.180711 -0.04725,0.497482 -0.46788,0.46788 -0.623634,0.494489 -0.745983,0.127444 z"
         id="path1747" /><path
         style="fill:#d4b108;stroke-width:0.264583"
         d="m 117.28276,64.426938 c -1.38245,-0.179856 -3.04933,-0.455989 -3.70417,-0.613625 -0.65484,-0.157638 -2.26219,-0.543539 -3.57188,-0.857557 -3.72302,-0.892653 -7.26196,-1.772546 -8.99583,-2.236655 -0.87312,-0.233712 -2.599531,-0.65954 -3.836458,-0.946285 -1.236927,-0.286745 -2.487083,-0.628377 -2.778125,-0.759187 -0.291042,-0.130808 -1.660261,-0.499248 -3.042709,-0.818758 -3.090695,-0.714315 -3.813198,-1.040572 -3.918593,-1.769496 -0.07188,-0.497163 0.02842,-0.557787 0.803675,-0.485735 1.534332,0.142601 3.908669,0.748794 3.908669,0.997925 0,0.131511 0.208359,0.213329 0.46302,0.181817 0.254662,-0.03151 0.641615,0.01262 0.859896,0.09807 0.218282,0.08545 1.230313,0.329402 2.248959,0.542119 1.018646,0.212718 2.506927,0.587751 3.307291,0.833409 0.800365,0.245657 3.360205,0.940707 5.688545,1.544555 2.32833,0.603848 4.29286,1.161442 4.36562,1.239094 0.22792,0.243245 2.61624,0.793872 3.44338,0.793872 0.43448,0 0.78996,0.105114 0.78996,0.233587 0,0.307856 3.63495,0.880227 5.86245,0.923118 0.96877,0.01865 1.6442,0.106148 1.50096,0.194429 -0.33157,0.204346 1.39772,0.494239 2.97091,0.498036 0.66341,0.0016 1.42106,0.16002 1.68366,0.352041 0.40609,0.29694 0.028,0.3516 -2.52912,0.365684 -1.65361,0.0091 -4.13767,-0.130599 -5.52011,-0.310454 z m -32.911857,-8.28462 c -1.552522,-0.398568 -1.555946,-0.401619 -0.859896,-0.766316 0.422627,-0.221437 0.705459,-0.598105 0.715603,-0.953017 l 0.01678,-0.586863 0.232889,0.578016 c 0.306795,0.761448 1.142336,1.214676 1.528111,0.828901 0.34797,-0.34797 1.115875,0.309525 1.115875,0.955434 0,0.504338 -0.615024,0.491776 -2.749351,-0.05615 z m 3.163237,-1.567181 c -0.143584,-0.377084 -0.113194,-0.407475 0.148114,-0.148112 0.180821,0.179476 0.262115,0.39297 0.180652,0.474431 -0.08146,0.08146 -0.229407,-0.06538 -0.328766,-0.326319 z m -8.880552,-0.606723 c -0.238467,-0.15411 -0.271101,-0.258098 -0.08176,-0.260532 0.173313,-0.0022 0.388699,0.115011 0.478636,0.260532 0.203016,0.328487 0.111422,0.328487 -0.396876,0 z m 8.775031,-0.500938 c -0.267211,-0.166032 -0.219009,-0.254462 0.198173,-0.363557 0.303199,-0.07929 0.629317,-0.01788 0.724704,0.136464 0.09703,0.157001 0.04883,0.203611 -0.109429,0.105804 -0.155577,-0.09615 -0.322799,-0.05883 -0.37161,0.08293 -0.05029,0.146063 -0.241747,0.162683 -0.441838,0.03836 z M 85.665047,52.91008 c -0.08994,-0.14552 -0.03743,-0.264583 0.116676,-0.264583 0.154109,0 0.280199,0.119063 0.280199,0.264583 0,0.145521 -0.0525,0.264584 -0.116676,0.264584 -0.06417,0 -0.190262,-0.119063 -0.280199,-0.264584 z m 2.866318,-0.385236 c 0,-0.21188 0.101161,-0.322715 0.224804,-0.246301 0.123639,0.07641 0.156302,0.249771 0.07258,0.385236 -0.213947,0.346176 -0.297381,0.307197 -0.297381,-0.138935 z M 75.90359,52.006147 c 0.08843,-0.230441 0.277026,-0.418983 0.419104,-0.418983 0.347766,0 0.129999,0.60134 -0.26551,0.733176 -0.193344,0.06445 -0.252475,-0.05651 -0.153594,-0.314193 z m -1.99892,-0.201155 c -0.298512,-0.110427 -0.540926,-0.353441 -0.538697,-0.540032 0.0025,-0.20848 0.07898,-0.237264 0.198437,-0.07467 0.106912,0.145521 0.343214,0.276489 0.525115,0.291041 0.181901,0.01455 0.568854,0.04432 0.859896,0.06615 0.291042,0.02183 0.529167,0.151351 0.529167,0.287827 0,0.282163 -0.769268,0.267348 -1.573918,-0.03031 z"
         id="path1745" /><path
         style="fill:#aa930d;stroke-width:0.264583"
         d="m 114.10858,64.754957 c -1.52751,-0.138086 -2.8372,-0.33655 -2.91042,-0.441028 -0.0732,-0.104479 -0.84749,-0.338722 -1.72061,-0.520539 -1.53402,-0.319439 -3.79802,-0.8383 -7.67292,-1.758474 -2.57488,-0.611454 -7.821062,-2.026568 -12.209873,-3.293512 -1.709147,-0.493387 -2.209919,-0.85761 -2.209919,-1.607324 0,-0.126851 0.327422,-0.07038 0.727605,0.125494 0.400182,0.195872 1.858698,0.617152 3.241145,0.936177 1.382448,0.319024 2.751667,0.68707 3.042709,0.817878 0.291042,0.13081 1.541198,0.472442 2.778125,0.759187 1.236927,0.286745 2.963338,0.712573 3.836458,0.946285 1.73233,0.463696 5.26725,1.342626 8.99583,2.236737 1.30969,0.314063 2.8575,0.685732 3.43959,0.825932 2.11551,0.50954 7.46317,1.054997 9.71265,0.990682 1.26738,-0.03624 2.38855,0.01833 2.4915,0.12129 0.26433,0.264335 -8.20974,0.162441 -11.54187,-0.138785 z M 84.474422,56.857775 c -1.236928,-0.41461 -2.457175,-0.758079 -2.711662,-0.763265 -0.733068,-0.01494 -3.949727,-1.764515 -4.899754,-2.665031 -0.485751,-0.460436 -0.783319,-0.950902 -0.679163,-1.11943 0.131814,-0.213279 0.219161,-0.198594 0.302301,0.05082 0.184565,0.553695 1.108487,1.393842 1.113162,1.012228 0.0027,-0.220486 0.08955,-0.198437 0.260532,0.06615 0.141064,0.218281 0.260127,0.277813 0.264583,0.132292 0.0045,-0.145521 0.105222,-0.11152 0.223922,0.07556 0.1187,0.187078 0.563361,0.402441 0.988136,0.478583 0.424774,0.07614 0.809775,0.243812 0.855557,0.372599 0.04578,0.128787 0.273673,0.161082 0.506424,0.07177 0.303842,-0.116595 0.362109,-0.06357 0.206611,0.188036 -0.137549,0.222556 -0.113827,0.286923 0.06501,0.176396 0.369459,-0.228337 1.161585,0.08051 0.976128,0.380594 -0.07916,0.128081 0.248946,0.165112 0.729123,0.08229 0.601339,-0.103719 0.760436,-0.07105 0.511209,0.104972 -0.259974,0.183611 0.234154,0.390108 1.755219,0.733511 1.907247,0.430588 2.426677,0.776864 1.899521,1.266301 -0.06485,0.0602 -1.129932,-0.229762 -2.366859,-0.644371 z m 2.645833,-1.301861 c 0,-0.145521 0.119063,-0.264584 0.264583,-0.264584 0.145521,0 0.264584,0.119063 0.264584,0.264584 0,0.14552 -0.119063,0.264583 -0.264584,0.264583 -0.14552,0 -0.264583,-0.119063 -0.264583,-0.264583 z m 0.452504,-1.322917 c 0.07611,-0.291042 0.247745,-0.529167 0.381415,-0.529167 0.134266,0 0.11629,0.236823 -0.04017,0.529167 -0.15576,0.291042 -0.327398,0.529167 -0.381413,0.529167 -0.05402,0 -0.03594,-0.238125 0.04017,-0.529167 z m 0.567531,-1.190625 c 0.405395,-0.729766 1.352984,-1.817165 1.473692,-1.691127 0.05459,0.057 -0.320805,0.579877 -0.834202,1.16196 -0.513398,0.582084 -0.801169,0.820209 -0.63949,0.529167 z m -13.195839,-0.66453 c -0.511409,-0.316068 -0.248336,-0.503603 0.384283,-0.273941 0.281382,0.102152 0.39476,0.257944 0.251951,0.346205 -0.14281,0.08826 -0.429115,0.05574 -0.636234,-0.07226 z m 15.400414,-1.071798 c 0.06366,-0.190996 0.272023,-0.399356 0.46302,-0.463021 0.198438,-0.06615 0.297657,0.03307 0.231511,0.231511 -0.06367,0.190996 -0.272026,0.399355 -0.463021,0.46302 -0.198438,0.06615 -0.297656,-0.03307 -0.23151,-0.23151 z"
         id="path1743" /><path
         style="fill:#8d7612;stroke-width:0.264583"
         d="m 108.94838,64.109149 c -2.61967,-0.325837 -6.57222,-0.963223 -7.9375,-1.279993 -0.87312,-0.202581 -3.075781,-0.681165 -4.894791,-1.063514 -1.819011,-0.382352 -3.962136,-0.924121 -4.762501,-1.203928 -0.800364,-0.27981 -1.928344,-0.60253 -2.506622,-0.717159 -0.859896,-0.170447 -1.092603,-0.351102 -1.277517,-0.991756 -0.206169,-0.714277 -0.450906,-0.852812 -2.775771,-1.57124 -1.402315,-0.433343 -2.813735,-0.753292 -3.136487,-0.710997 -0.537123,0.07039 -1.366797,-0.398992 -4.408338,-2.493964 -0.554323,-0.381811 -0.944153,-0.757907 -0.86629,-0.835771 0.07786,-0.07786 0.304231,-0.0066 0.503038,0.158421 0.198807,0.164995 0.449731,0.211727 0.557609,0.103849 0.107878,-0.107878 0.156454,-0.02618 0.107947,0.181551 -0.09621,0.412034 3.263333,2.370776 4.098488,2.389573 0.265385,0.006 1.336948,0.297055 2.38125,0.646849 2.822049,0.945257 2.884906,0.945888 3.013282,0.03025 0.151601,-1.081277 0.340661,-1.193832 0.340661,-0.202808 0,1.630243 -0.129511,1.556014 5.423959,3.108683 3.040356,0.85004 7.266163,1.966979 8.995833,2.377723 2.80841,0.666912 5.89167,1.385301 7.80521,1.818582 1.58335,0.358519 1.23817,0.491929 -0.66146,0.255651 z M 81.828588,55.026747 c -0.48365,-0.312558 -0.06591,-0.312558 0.661458,0 0.348917,0.149935 0.393981,0.232345 0.132292,0.241936 -0.218281,0.008 -0.575469,-0.100872 -0.79375,-0.241936 z m 1.700893,-0.151191 c 0.228676,-0.228675 0.415774,-0.546175 0.415774,-0.705555 0,-0.15938 0.06918,-0.220604 0.153728,-0.136053 0.213971,0.213971 -0.376121,1.257382 -0.711102,1.257382 -0.150797,0 -0.08707,-0.187098 0.1416,-0.415774 z m -6.761725,-2.163913 c -0.335893,-0.428296 -0.323441,-0.433911 0.16604,-0.07487 0.291042,0.213484 0.578776,0.421843 0.63941,0.463021 0.06063,0.04118 -0.01408,0.07487 -0.166041,0.07487 -0.151956,0 -0.43969,-0.20836 -0.639409,-0.463021 z m -1.156876,-0.06615 c -0.08994,-0.145521 -0.04446,-0.264583 0.101061,-0.264583 0.145521,0 0.338168,0.119062 0.428105,0.264583 0.08994,0.145521 0.04446,0.264583 -0.101062,0.264583 -0.14552,0 -0.338168,-0.119062 -0.428104,-0.264583 z m 8.863542,0.01562 c 0,-0.136933 0.117699,-0.321711 0.261553,-0.410617 0.149982,-0.09269 0.194337,0.01351 0.103984,0.248968 -0.175892,0.458368 -0.365537,0.542233 -0.365537,0.161648 z m 3.61288,-0.74322 c -0.06739,-0.109141 0.181964,-0.216744 0.554109,-0.239119 0.487841,-0.02933 0.573034,0.02491 0.30534,0.194386 -0.45819,0.290086 -0.700189,0.302682 -0.859449,0.04473 z M 75.428978,50.877256 c 0.190997,-0.07643 0.4192,-0.06703 0.507119,0.02089 0.08792,0.08792 -0.06835,0.150453 -0.347266,0.138965 -0.308225,-0.0127 -0.370919,-0.07539 -0.159853,-0.159853 z m 15.610418,-0.264583 c 0.190995,-0.07643 0.419198,-0.06703 0.507119,0.02089 0.08792,0.08792 -0.06835,0.150453 -0.347266,0.138964 -0.308226,-0.01269 -0.370919,-0.07539 -0.159853,-0.159852 z"
         id="path1741" /></g><path
       style="fill:none;fill-opacity:1;stroke:#000000;stroke-width:0.5;stroke-linecap:butt;stroke-linejoin:bevel;stroke-dasharray:none"
       d="m 75.366966,65.069425 c -4.171198,-2.200984 -8.914651,-2.852587 -13.393265,-4.186711 -1.44556,-0.690093 -4.804814,-0.542923 -5.116978,-1.718221 2.790071,-0.399666 5.451531,1.225328 8.177737,1.708459 2.807038,0.587186 5.644734,1.907272 8.479306,1.838337 5.206973,-0.0092 6.909392,-0.479995 14.787423,-0.307498 2.475394,-0.34649 3.407237,-4.127342 5.932111,-5.107464 3.464679,-0.180806 0.662891,3.095769 -0.180816,4.624046 -1.895456,2.500465 3.091089,2.228271 4.674843,3.13881 8.745963,2.805974 17.386423,6.068621 25.513603,10.376274 1.2773,0.509231 2.43287,2.530725 0.13492,2.110765 -7.29836,0.365917 -14.57601,-0.681445 -21.74428,-1.947507 C 97.400161,74.663872 92.214035,73.50182 87.153109,71.8695 c -2.141735,-0.521852 -3.775271,1.531432 -5.495315,3.069444 -1.524583,1.165147 -3.189091,3.632688 -5.179643,2.491202 -1.756213,-1.807105 1.984518,-4.037905 3.154181,-5.584521 1.141716,-1.324827 2.201397,-2.634522 0.09886,-3.592434 -3.492728,-2.175149 -2.157333,-1.427464 -4.364223,-3.183766 z"
       id="path2361"
       sodipodi:nodetypes="scccccccccccccccccs" /><path
       style="fill:#000000;fill-opacity:1;stroke:none;stroke-width:0.499999;stroke-linecap:butt;stroke-linejoin:bevel;stroke-dasharray:none"
       d="m 73.67848,62.741058 -0.495956,1.278845 -10.900137,-3.069908 c 0,0 -1.554097,-0.465222 -1.829279,-0.465222 -0.27518,0 -2.739977,-0.545322 -2.739977,-0.545322 l -0.988952,-0.913537 2.899656,0.08535 4.044767,1.425384 3.433705,0.724305 c 0,0 2.38225,0.953558 2.624653,0.909317 0.242406,-0.04424 2.417405,0.537046 2.417405,0.537046 z"
       id="path2363" /><path
       style="fill:#000000;fill-opacity:1;stroke:none;stroke-width:0.499999;stroke-linecap:butt;stroke-linejoin:bevel;stroke-dasharray:none"
       d="m 88.684461,62.466352 5.432428,1.350801 -0.516538,-1.209366 0.544126,-1.065538 1.44041,-1.863518 0.184722,-1.335188 -0.369591,-1.073923 -0.957149,-0.11512 -0.929227,0.374496 -1.453989,1.533576 -1.330711,1.713372 z"
       id="path2365" /><path
       style="fill:#000000;fill-opacity:1;stroke:none;stroke-width:0.499999;stroke-linecap:butt;stroke-linejoin:bevel;stroke-dasharray:none"
       d="m 80.898489,68.765678 1.006765,0.103538 2.057558,0.506165 2.705067,0.858576 0.378874,0.191705 0.467961,0.354262 0.359353,1.030603 0.100443,0.321167 -1.872511,-0.378862 -1.387745,0.569097 -1.761853,1.637298 -1.529059,1.222923 -2.619767,2.127221 -2.182301,0.366421 -0.636463,-1.509435 0.971391,-1.669163 2.243537,-2.155534 1.389745,-1.783517 0.367057,-1.032732 z"
       id="path2367"
       sodipodi:nodetypes="cccccccccccccccccccc" /><path
       style="fill:#000000;fill-opacity:1;stroke:#000000;stroke-width:0.5;stroke-linecap:round;stroke-linejoin:round;stroke-dasharray:none;stroke-opacity:1"
       d="m 76.657651,63.753544 c 0.909763,-0.872754 4.042645,-0.378035 6.195243,-0.242546 1.30315,-0.0962 4.405717,-0.148925 7.525827,0.476926 l -2.76807,4.473176 c -0.585559,1.321047 -7.402409,-1.773332 -8.979943,-2.335891 -0.758752,-0.461027 -2.470358,-1.206894 -1.973057,-2.371665 z"
       id="path4547"
       sodipodi:nodetypes="cccccc" /></g></svg>
