<?xml version="1.0" encoding="UTF-8" standalone="no"?>
<!-- Created with Inkscape (http://www.inkscape.org/) -->

<svg
   width="210mm"
   height="297mm"
   viewBox="0 0 210 297"
   version="1.1"
   id="svg5"
   xml:space="preserve"
   inkscape:version="1.2.2 (b0a8486541, 2022-12-01)"
   sodipodi:docname="LFI.svg"
   xmlns:inkscape="http://www.inkscape.org/namespaces/inkscape"
   xmlns:sodipodi="http://sodipodi.sourceforge.net/DTD/sodipodi-0.dtd"
   xmlns="http://www.w3.org/2000/svg"
   xmlns:svg="http://www.w3.org/2000/svg"><sodipodi:namedview
     id="namedview7"
     pagecolor="#ffffff"
     bordercolor="#000000"
     borderopacity="0.25"
     inkscape:showpageshadow="2"
     inkscape:pageopacity="0.0"
     inkscape:pagecheckerboard="0"
     inkscape:deskcolor="#d1d1d1"
     inkscape:document-units="mm"
     showgrid="false"
     inkscape:zoom="0.54488788"
     inkscape:cx="153.24254"
     inkscape:cy="430.36377"
     inkscape:window-width="1920"
     inkscape:window-height="1152"
     inkscape:window-x="1920"
     inkscape:window-y="0"
     inkscape:window-maximized="1"
     inkscape:current-layer="layer1" /><defs
     id="defs2" /><g
     inkscape:label="Layer 1"
     inkscape:groupmode="layer"
     id="layer1"><g
       id="g185"
       transform="translate(-117.60747,-3.3299789)" /><g
       id="g1062"
       transform="translate(83.371475,6.1923713)"
       inkscape:export-filename="lfi.png"
       inkscape:export-xdpi="200"
       inkscape:export-ydpi="200"><path
         style="fill:#ff8124;fill-opacity:1;stroke-width:0.264583"
         d="m 167.12143,245.73381 c 0,-2.16675 -0.0935,-3.05954 -0.33073,-3.15823 -0.1819,-0.0757 -0.0926,-0.11535 0.19844,-0.0882 0.29104,0.0271 0.55406,-0.0697 0.58448,-0.21521 0.0304,-0.14553 -0.18286,-0.25461 -0.47396,-0.24242 -0.33024,0.0138 -0.50028,-0.12337 -0.45218,-0.36494 0.098,-0.49236 2.77267,-0.60475 3.16417,-0.13295 0.34058,0.41042 0.15172,1.28948 -0.25854,1.20333 -0.2292,-0.0481 -0.31501,0.76268 -0.31501,2.97656 0,1.85208 -0.10353,3.04271 -0.26458,3.04271 -0.16106,0 -0.26459,-1.19063 -0.26459,-3.04271 0,-2.86631 -0.0307,-3.04271 -0.52916,-3.04271 -0.4985,0 -0.52917,0.1764 -0.52917,3.04271 0,1.85208 -0.10353,3.04271 -0.26458,3.04271 -0.16094,0 -0.26459,-1.18327 -0.26459,-3.02067 z m 2.49641,-3.62164 c -0.18467,-0.2988 -0.90891,-0.31184 -0.90891,-0.0164 0,0.37235 0.29785,0.54391 0.68581,0.39502 0.20322,-0.078 0.30361,-0.24836 0.2231,-0.37864 z m 0.0833,-61.80258 c -0.40175,-0.10499 -0.46302,-0.46855 -0.46302,-2.74743 0,-2.45004 0.0355,-2.62643 0.52917,-2.62643 0.49557,0 0.52916,0.17639 0.52916,2.77812 0,1.52797 -0.0298,2.76431 -0.0661,2.74743 -0.0364,-0.0169 -0.27451,-0.0851 -0.52917,-0.15169 z m -3.5319,-27.30926 c -1.21302,-0.55089 -2.14503,-1.68677 -2.39031,-2.91317 l -0.16321,-0.81602 h 4.64952 4.64952 l -0.29129,0.8599 c -0.69167,2.04183 -2.43644,3.36181 -4.44368,3.36181 -0.50933,0 -1.41408,-0.22163 -2.01055,-0.49252 z m -2.36617,-5.23441 c 0.29081,-1.15868 1.11928,-2.10323 2.32209,-2.64745 2.64738,-1.19782 5.79103,0.0963 6.43134,2.64745 l 0.17857,0.71147 h -4.55528 -4.55529 z m -0.43066,-57.229356 c -1.94253,-1.286677 -3.0556,-2.950327 -3.53261,-5.28002 -0.75005,-3.663156 1.03711,-7.302556 4.41484,-8.990423 1.45225,-0.725699 1.88323,-0.813731 3.98379,-0.813731 1.96318,0 2.5882,0.110143 3.75364,0.661485 1.76838,0.836578 3.14201,2.16572 4.05032,3.919132 0.60392,1.165826 0.71271,1.711172 0.72239,3.621466 0.009,1.839836 -0.097,2.452183 -0.58425,3.366083 -1.30425,2.446041 -3.94335,4.654722 -4.87019,4.075895 -0.61781,-0.385826 -6.49023,-0.405675 -6.61799,-0.02236 -0.0506,0.151723 -0.64455,-0.09016 -1.31994,-0.53752 z m 5.86571,-58.872717 c 0,-1.992156 0.0778,-2.513542 0.37483,-2.513542 0.20615,0 0.43488,-0.148828 0.50827,-0.330729 0.0734,-0.181901 0.14286,0.949193 0.15434,2.513542 0.0196,2.674845 -0.0106,2.844271 -0.50827,2.844271 -0.49204,0 -0.52917,-0.17639 -0.52917,-2.513542 z M 166.11063,6.7597972 C 165.02623,6.207072 164.00575,4.9068116 163.78326,3.7943551 L 163.6157,2.9565546 h 4.68111 4.68112 l -0.18365,0.5953125 c -0.68782,2.2297417 -2.14507,3.4354347 -4.30965,3.5657129 -1.03155,0.062085 -1.76803,-0.048911 -2.374,-0.3577828 z M 163.81811,1.567492 c 0.23733,-0.82176937 0.95355,-1.7858555 1.79148,-2.41146016 0.87271,-0.65157084 3.01102,-0.95117714 4.12109,-0.57742134 1.39252,0.46886015 2.947,2.22896378 2.947,3.3368351 0,0.1437613 -1.89127,0.2473589 -4.51574,0.2473589 h -4.51575 z m 5.59638,-39.268578 c -0.097,-0.09701 -0.17639,-1.287637 -0.17639,-2.645834 0,-1.954112 0.0782,-2.469443 0.37483,-2.469443 0.20615,0 0.43488,-0.148828 0.50827,-0.330729 0.0734,-0.181902 0.14286,1.008724 0.15434,2.645833 0.0162,2.314525 -0.0576,2.976563 -0.33188,2.976563 -0.19403,0 -0.43216,-0.07937 -0.52917,-0.17639 z m -3.65341,-27.646534 c -0.88756,-0.514666 -2.07923,-2.141568 -2.07923,-2.838622 0,-0.205068 1.37681,-0.294705 4.5266,-0.294705 h 4.5266 l -0.17469,0.696014 c -0.64555,2.572084 -4.30477,3.88379 -6.79928,2.437313 z m -1.93406,-5.051557 c 0.87457,-2.879173 4.70022,-4.054697 7.13986,-2.193895 0.7983,0.608894 1.7108,2.021498 1.7108,2.648418 0,0.07743 -2.03208,0.14079 -4.51574,0.14079 h -4.51575 z"
         id="path195"
         sodipodi:nodetypes="sscssssssssssssssssssssssssssscccsssssscccsssssssccscssssccssccccccsccscssccsssscssssscsssssscs"
         transform="translate(-117.60747,-3.3299789)" /><path
         style="fill:#2c2a2b;stroke-width:0.264583"
         d="m 161.56518,292.8094 c 0,-0.34594 -2.2954,-0.40375 -18.45468,-0.46484 l -18.45469,-0.0698 18.45469,-0.0643 18.45468,-0.0643 v -0.66146 c 0,-0.41159 -0.14993,-0.66146 -0.39687,-0.66146 -0.22049,0 -0.39688,-0.23519 -0.39688,-0.52917 0,-0.4939 0.17639,-0.52916 2.64584,-0.52916 1.5875,0 2.64583,-0.10584 2.64583,-0.26459 0,-0.15563 -0.92604,-0.26458 -2.24896,-0.26458 h -2.24896 v -1.05833 c 0,-0.76436 -0.11024,-1.05834 -0.39687,-1.05834 -0.21828,0 -0.39688,-0.17428 -0.39688,-0.3873 0,-0.30808 0.52326,-0.40277 2.55824,-0.46302 1.75509,-0.0519 2.59267,-0.17954 2.66788,-0.40645 0.082,-0.24741 -0.46247,-0.33073 -2.16136,-0.33073 h -2.27101 v -1.05833 c 0,-0.76436 -0.11024,-1.05833 -0.39687,-1.05833 -0.21828,0 -0.39688,-0.1786 -0.39688,-0.39688 0,-0.32631 0.47037,-0.39687 2.64584,-0.39687 2.17546,0 2.64583,-0.0706 2.64583,-0.39688 0,-0.32165 -0.42627,-0.39687 -2.24896,-0.39687 h -2.24896 v -1.19063 c 0,-0.88194 -0.10289,-1.19062 -0.39687,-1.19062 -0.21828,0 -0.39688,-0.11907 -0.39688,-0.26459 0,-0.15875 1.05834,-0.26458 2.64584,-0.26458 h 2.64583 v -0.77534 c 0,-0.60264 0.13262,-0.7942 0.59531,-0.85989 0.89337,-0.1269 0.98781,-1.85632 0.14895,-2.72778 -0.33658,-0.34967 -0.61787,-0.96634 -0.62509,-1.37035 -0.0138,-0.77275 0.80539,-1.93956 1.3617,-1.93956 0.17991,0 0.39657,-0.14883 0.48146,-0.33073 0.12347,-0.26458 0.1852,-0.26458 0.30867,0 0.0849,0.1819 0.31438,0.33073 0.50997,0.33073 0.19559,0 0.60239,0.31372 0.90399,0.69715 0.57499,0.73097 0.7356,1.6841 0.28379,1.6841 -0.14552,0 -0.26458,-0.24662 -0.26458,-0.54806 0,-0.78777 -0.62849,-1.30402 -1.5875,-1.30402 -0.45736,0 -1.00164,0.1701 -1.20953,0.37798 -0.50426,0.50424 -0.48001,1.5892 0.0453,2.02515 0.48473,0.40227 1.88753,0.366 2.40345,-0.0622 0.46928,-0.38946 0.43948,-0.0802 -0.0667,0.69234 -0.61039,0.93157 -0.40796,2.36773 0.34889,2.47523 0.46269,0.0657 0.59531,0.25725 0.59531,0.85989 v 0.77534 h 2.64584 c 1.5875,0 2.64583,0.10583 2.64583,0.26458 0,0.14552 -0.1786,0.26459 -0.39688,0.26459 -0.29345,0 -0.39687,0.30749 -0.39687,1.17993 v 1.17991 l -2.16152,0.0769 c -1.43643,0.0511 -2.19824,0.18778 -2.271,0.40757 -0.0828,0.24995 0.54207,0.33073 2.55839,0.33073 2.10399,0 2.66788,0.0779 2.66788,0.36856 0,0.20272 -0.1786,0.43709 -0.39688,0.52086 -0.2491,0.0956 -0.39687,0.50019 -0.39687,1.08664 v 0.93435 h -2.27101 c -1.69889,0 -2.24338,0.0833 -2.16136,0.33073 0.0752,0.22691 0.91279,0.35452 2.66788,0.40645 2.03499,0.0602 2.55824,0.15494 2.55824,0.46302 0,0.21302 -0.1786,0.3873 -0.39688,0.3873 -0.28663,0 -0.39687,0.29398 -0.39687,1.05834 v 1.05833 h -2.24896 c -1.32292,0 -2.24896,0.10895 -2.24896,0.26458 0,0.15875 1.05834,0.26459 2.64584,0.26459 2.46944,0 2.64583,0.0353 2.64583,0.52916 0,0.29398 -0.17639,0.52917 -0.39688,0.52917 -0.24679,0 -0.39687,0.24977 -0.39687,0.66048 v 0.6605 l 35.12344,0.0681 35.12343,0.0681 -35.12343,0.0652 c -31.01548,0.0576 -35.12344,0.11158 -35.12344,0.46204 0,0.34219 -0.91134,0.39688 -6.61458,0.39688 -5.68986,0 -6.61459,-0.0553 -6.61459,-0.39508 z m 7.14375,-16.5074 c 0,-0.54036 -0.15434,-0.80325 -0.52916,-0.90125 -0.45269,-0.11841 -0.52917,-0.008 -0.52917,0.76287 0,0.72488 0.10356,0.90128 0.52917,0.90128 0.40681,0 0.52916,-0.1764 0.52916,-0.7629 z m -1.30547,-16.59041 c -0.64004,-0.9397 -0.641,-0.95113 -0.15712,-1.84962 0.44759,-0.83114 0.45899,-1.08027 0.14124,-3.08756 -0.1901,-1.20092 -0.38536,-2.71926 -0.43391,-3.3741 -0.1291,-1.7413 -0.0922,-8.03029 0.0479,-8.17041 0.0659,-0.0659 0.11985,1.20967 0.11985,2.83464 0,3.9044 0.48541,3.88644 0.59624,-0.022 l 0.0844,-2.97656 0.0566,2.97656 c 0.0323,1.70182 0.16616,2.97656 0.31248,2.97656 0.14467,0 0.29261,-1.29394 0.34032,-2.97656 l 0.0844,-2.97656 0.0565,2.97656 c 0.0754,3.9688 0.58573,3.98801 0.58573,0.022 0,-1.62497 0.0527,-2.90177 0.1172,-2.83731 0.12999,0.13001 0.1578,5.96511 0.0383,8.04079 -0.0419,0.7276 -0.22844,2.25166 -0.41457,3.3868 -0.30491,1.85957 -0.292,2.16683 0.13039,3.10351 0.46379,1.02851 0.46204,1.04955 -0.16429,1.96919 -0.3482,0.51128 -0.69261,0.92958 -0.76537,0.92958 -0.0728,0 -0.4221,-0.42547 -0.77631,-0.94551 z m 1.51824,-0.93552 c 0.0651,-0.56168 -0.0472,-0.71842 -0.58909,-0.822 -0.79665,-0.1523 -0.94659,-0.0379 -0.94659,0.72228 0,0.73623 0.24277,0.96732 0.91515,0.87106 0.36035,-0.0516 0.56683,-0.30824 0.62053,-0.77134 z m -0.47735,-5.92055 c 0,-0.88863 0.11418,-1.45521 0.29327,-1.45521 0.17802,0 0.23018,-0.25133 0.13274,-0.63955 -0.0883,-0.35176 -0.0714,-0.68945 0.0375,-0.75038 0.10889,-0.061 0.0569,-0.0775 -0.11565,-0.0368 -0.1725,0.0407 -0.38086,-0.0681 -0.46302,-0.2418 -0.11576,-0.24477 -0.18301,-0.24477 -0.29877,0 -0.0822,0.17372 -0.35005,0.2518 -0.59531,0.17348 -0.32445,-0.10361 -0.35339,-0.0758 -0.10624,0.10216 0.18683,0.13451 0.26801,0.43135 0.1804,0.65966 -0.0876,0.22831 -0.0321,0.49371 0.12333,0.58978 0.15544,0.0961 0.28262,0.82248 0.28262,1.61425 0,0.79179 0.11906,1.4396 0.26459,1.4396 0.14552,0 0.26458,-0.65485 0.26458,-1.45521 z m -1.05833,-12.36971 c 0,-0.25466 0.12289,-0.46302 0.2731,-0.46302 0.15022,0 0.38079,-0.26789 0.5124,-0.59532 l 0.23929,-0.59531 0.0168,0.59531 c 0.009,0.32743 0.12195,0.59532 0.2505,0.59532 0.12855,0 0.28821,0.20836 0.35481,0.46302 0.0975,0.37274 -0.0513,0.46302 -0.7629,0.46302 -0.66549,0 -0.88397,-0.11443 -0.88397,-0.46302 z m 0.52916,-4.44738 c 0,-0.15412 0.11906,-0.20662 0.26459,-0.11668 0.14552,0.0899 0.26458,0.21603 0.26458,0.28019 0,0.0642 -0.11906,0.11668 -0.26458,0.11668 -0.14553,0 -0.26459,-0.1261 -0.26459,-0.28019 z m -0.0827,-0.94904 c -0.29917,-0.29919 -0.2057,-1.36462 0.12953,-1.47635 0.72458,-0.24154 -0.11311,-0.67479 -1.05931,-0.54787 l -1.01235,0.13578 0.12243,-2.33259 c 0.12037,-2.29346 0.34291,-2.88414 1.08658,-2.88414 0.20616,0 0.43046,-0.16688 0.49845,-0.37084 0.0893,-0.268 -0.0346,-0.32952 -0.44669,-0.22173 -0.5338,0.1396 -0.56355,0.0702 -0.46483,-1.08436 0.0755,-0.88321 0.23038,-1.25836 0.5453,-1.32104 0.35158,-0.07 0.40543,0.0495 0.26843,0.59531 -0.1344,0.53549 -0.0734,0.68286 0.28285,0.68286 0.33492,0 0.41856,-0.15637 0.31841,-0.59531 -0.0747,-0.32742 -0.0365,-0.83344 0.085,-1.12448 0.2183,-0.52305 0.22106,-0.52289 0.23944,0.0146 0.0148,0.43228 0.1886,0.54079 0.84773,0.52917 0.71215,-0.0124 0.8402,0.0875 0.90755,0.70885 0.0431,0.39788 -0.0323,0.79184 -0.16768,0.8755 -0.33917,0.20963 -0.31266,4.28183 0.0293,4.49313 0.15144,0.0936 0.20295,0.39828 0.11446,0.6771 -0.12311,0.38787 -0.0325,0.50688 0.38612,0.50688 0.30084,0 0.54699,0.1 0.54699,0.22212 0,0.28975 -1.20749,0.83622 -1.84777,0.83622 -0.36775,0 -0.52187,0.22198 -0.58286,0.83952 -0.0809,0.81918 -0.46186,1.20687 -0.82705,0.84169 z m 0.61185,-0.88747 c 0,-0.14552 -0.11906,-0.26458 -0.26458,-0.26458 -0.14553,0 -0.26459,0.11906 -0.26459,0.26458 0,0.14552 0.11906,0.26459 0.26459,0.26459 0.14552,0 0.26458,-0.11907 0.26458,-0.26459 z m -0.79375,-3.70416 c 0,-1.05834 -0.11339,-1.85209 -0.26458,-1.85209 -0.14553,0 -0.27344,0.56555 -0.28425,1.25677 -0.0108,0.69123 -0.0696,1.52467 -0.13063,1.85209 -0.0748,0.40119 0.0179,0.59531 0.28424,0.59531 0.31293,0 0.39522,-0.38563 0.39522,-1.85208 z m -0.79375,-1.5875 c 0,-0.14552 -0.11906,-0.26459 -0.26458,-0.26459 -0.14553,0 -0.26459,0.11907 -0.26459,0.26459 0,0.14552 0.11906,0.26458 0.26459,0.26458 0.14552,0 0.26458,-0.11906 0.26458,-0.26458 z m 2.11667,-4.76253 c 0,-0.14552 0.24515,-0.26459 0.54478,-0.26459 0.29963,0 0.47119,0.11907 0.38126,0.26459 -0.0899,0.14552 -0.33509,0.26458 -0.54479,0.26458 -0.20969,0 -0.38125,-0.11906 -0.38125,-0.26458 z m -1.14102,-0.43545 c -0.28399,-0.28401 -0.21338,-1.9458 0.0827,-1.9458 0.14552,0 0.27213,-0.20836 0.28136,-0.46302 0.0119,-0.32772 0.0928,-0.27242 0.2771,0.18917 0.48022,1.20309 0.001,2.86187 -0.64114,2.21965 z m 0.50712,-0.81582 c -0.26896,-0.26895 -0.49087,0.13597 -0.2702,0.49302 0.1667,0.26972 0.22902,0.26993 0.31864,0 0.0613,-0.1838 0.0395,-0.40616 -0.0484,-0.49408 z m -0.36978,-37.42907 c -0.42134,-0.42135 -0.40413,-1.05452 0.0454,-1.66923 0.34248,-0.46839 0.37574,-0.44799 0.54797,0.33618 0.22653,1.0314 -0.1189,1.80747 -0.59334,1.33305 z m 0.47451,-1.00716 c 0,-0.14552 -0.11906,-0.26459 -0.26458,-0.26459 -0.14553,0 -0.26459,0.11907 -0.26459,0.26459 0,0.14552 0.11906,0.26458 0.26459,0.26458 0.14552,0 0.26458,-0.11906 0.26458,-0.26458 z m 0.21471,-1.76676 c -0.24572,-0.0648 -0.48384,-0.37843 -0.52917,-0.69691 -0.0529,-0.37149 -0.30126,-0.61006 -0.69298,-0.66559 -0.72769,-0.10315 -0.64257,-0.60375 0.16466,-0.96838 0.53722,-0.24267 0.5782,-0.44423 0.5782,-2.84427 0,-2.57891 -0.001,-2.58309 -0.66146,-2.58309 h -0.66146 v -2.87434 c 0,-2.69339 0.0406,-2.91493 0.64481,-3.51915 0.46552,-0.46552 0.67296,-1.0089 0.74606,-1.95431 0.0557,-0.72022 0.12271,0.42683 0.14894,2.54901 l 0.0477,3.85851 h 0.79375 c 0.43656,0 0.79375,-0.1138 0.79375,-0.25288 0,-0.13909 0.17859,-0.10467 0.39687,0.0765 0.32459,0.26939 0.39688,1.15714 0.39688,4.87427 0,5.29118 -0.10928,5.54341 -2.16654,5.00064 z m 1.90196,-4.99573 v -2.76251 h -0.66146 -0.66146 v 2.64583 c 0,2.17546 0.0706,2.64583 0.39687,2.64583 0.21828,0 0.39688,0.12609 0.39688,0.2802 0,0.15411 0.11906,0.20661 0.26458,0.11668 0.14906,-0.0921 0.26459,-1.36976 0.26459,-2.92603 z m -1.5875,0.0312 c 0,-1.37988 -0.11843,-2.57112 -0.26459,-2.66145 -0.16969,-0.10488 -0.26458,0.791 -0.26458,2.49792 0,1.59791 0.10573,2.66145 0.26458,2.66145 0.15771,0 0.26459,-1.00903 0.26459,-2.49792 z m -0.79375,-3.70417 c 0,-0.0642 -0.11907,-0.19026 -0.26459,-0.2802 -0.14552,-0.0899 -0.26458,-0.0374 -0.26458,0.11668 0,0.15411 0.11906,0.2802 0.26458,0.2802 0.14552,0 0.26459,-0.0525 0.26459,-0.11668 z m 1.19062,-5.72218 c -0.43092,-0.17049 -0.36951,-0.21282 0.33073,-0.22796 0.89423,-0.0193 1.09674,0.10058 0.52917,0.31335 -0.1819,0.0682 -0.56886,0.0298 -0.8599,-0.0854 z m -1.39124,-4.25718 c -0.44547,-0.44547 -0.41474,-1.4093 0.0574,-1.80117 0.31836,-0.26421 0.41683,-0.1974 0.56208,0.38133 0.23792,0.94796 -0.16589,1.87345 -0.6195,1.41984 z m 0.4652,-0.4873 c 0,-0.14552 -0.11906,-0.26458 -0.26458,-0.26458 -0.14553,0 -0.26459,0.11906 -0.26459,0.26458 0,0.14552 0.11906,0.26459 0.26459,0.26459 0.14552,0 0.26458,-0.11907 0.26458,-0.26459 z m -0.1853,-5.02708 c 0,-0.80037 0.0496,-1.12779 0.11022,-0.72761 0.0606,0.40019 0.0606,1.05503 0,1.45521 -0.0606,0.40019 -0.11022,0.0728 -0.11022,-0.7276 z m -0.54231,-48.3294 c -0.55039,-0.22209 -0.37083,-0.55047 0.26459,-0.48387 1.36585,0.14317 1.40404,0.16069 0.85989,0.39452 -0.61239,0.26315 -0.68036,0.26855 -1.12448,0.0894 z m -0.17744,-2.00758 c 0.11031,-0.34757 -0.006,-0.46721 -0.46618,-0.47979 l -0.61315,-0.0168 0.59532,-0.23929 c 0.81276,-0.32669 0.74924,-0.64117 -0.28956,-1.4335 -1.02695,-0.78329 -1.93458,-0.87454 -2.10775,-0.2119 -0.0666,0.25466 -0.13299,0.0463 -0.14764,-0.46302 -0.0302,-1.04827 0.30048,-1.73859 0.71115,-1.48479 0.15173,0.0938 0.35066,0.0495 0.44207,-0.0984 0.0914,-0.1479 0.40669,-0.2689 0.70064,-0.2689 0.49646,0 0.52827,-0.14111 0.44741,-1.98499 l -0.0871,-1.984994 h 1.05833 1.05833 l -0.087,1.984994 c -0.0826,1.88394 -0.058,1.98499 0.48392,1.98499 0.54191,0 0.56654,-0.10105 0.48392,-1.98499 -0.0837,-1.908059 -0.064,-1.984963 0.50827,-1.984373 0.72992,7.94e-4 0.78955,-0.527296 0.0805,-0.712721 -0.47099,-0.123166 -0.52168,-0.425217 -0.59531,-3.547568 l -0.0805,-3.412937 0.62362,5.29e-4 c 0.44573,2.65e-4 0.58018,-0.112752 0.47133,-0.396412 -0.0838,-0.218281 -0.037,-0.396875 0.10398,-0.396875 0.15819,0 0.25628,2.425557 0.25628,6.336853 0,5.016104 0.0739,6.380954 0.35468,6.548434 0.51938,0.30984 0.77804,1.48737 0.28518,1.29824 -0.88663,-0.34023 -2.88091,1.05948 -2.58992,1.81776 0.0862,0.2246 0.0123,0.40288 -0.16698,0.40288 -0.20137,0 -0.26572,0.22254 -0.17216,0.59531 0.12961,0.5164 0.0461,0.59532 -0.62961,0.59532 -0.62152,0 -0.74932,-0.0936 -0.63207,-0.46303 z m 0.90505,-0.8599 c 0,-0.50932 -0.11906,-0.92604 -0.26458,-0.92604 -0.14553,0 -0.26459,0.41672 -0.26459,0.92604 0,0.50933 0.11906,0.92604 0.26459,0.92604 0.14552,0 0.26458,-0.41671 0.26458,-0.92604 z m 0,-1.98437 c 0,-0.43657 -0.11906,-0.79375 -0.26458,-0.79375 -0.14553,0 -0.26459,0.35718 -0.26459,0.79375 0,0.43656 0.11906,0.79375 0.26459,0.79375 0.14552,0 0.26458,-0.35719 0.26458,-0.79375 z m -1.32292,-0.16927 c 0,-0.3467 -0.94828,-0.87251 -1.5875,-0.88024 -0.60819,-0.007 -0.58688,0.032 0.26459,0.48833 1.03524,0.55486 1.32291,0.64008 1.32291,0.39191 z m 2.77554,-0.0911 c 0.0885,-0.14321 0.54202,-0.3706 1.0078,-0.5053 l 0.84687,-0.24491 -0.81889,-0.0239 c -0.50626,-0.0148 -1.00171,0.17816 -1.29778,0.50531 -0.26339,0.29104 -0.3484,0.52916 -0.18891,0.52916 0.15949,0 0.3624,-0.11717 0.45091,-0.26039 z m -1.45262,-3.31148 c 0,-1.14652 -0.11171,-1.984373 -0.26458,-1.984373 -0.15288,0 -0.26459,0.837853 -0.26459,1.984373 0,1.14653 0.11171,1.98438 0.26459,1.98438 0.15287,0 0.26458,-0.83785 0.26458,-1.98438 z m 2.38125,0 c 0,-1.14652 -0.11171,-1.984373 -0.26458,-1.984373 -0.15288,0 -0.26459,0.837853 -0.26459,1.984373 0,1.14653 0.11171,1.98438 0.26459,1.98438 0.15287,0 0.26458,-0.83785 0.26458,-1.98438 z m -3.175,-0.13229 c 0,-1.05833 -0.11339,-1.852083 -0.26458,-1.852083 -0.1512,0 -0.26459,0.793753 -0.26459,1.852083 0,1.05833 0.11339,1.85208 0.26459,1.85208 0.15119,0 0.26458,-0.79375 0.26458,-1.85208 z m 3.175,-6.217708 c 0,-2.028473 -0.10231,-3.307292 -0.26458,-3.307292 -0.16149,0 -0.26459,1.220023 -0.26459,3.130902 0,2.74733 0.0932,3.483682 0.44098,3.483682 0.0485,0 0.0882,-1.488282 0.0882,-3.307292 z m -5.56122,4.362553 c -0.51141,-0.316068 -0.24834,-0.503602 0.38428,-0.273941 0.28139,0.102153 0.39476,0.257945 0.25195,0.346204 -0.14281,0.08826 -0.42911,0.05574 -0.63623,-0.07226 z m 1.58183,-4.429162 c -0.0778,-2.242119 -0.0263,-3.506248 0.14293,-3.506348 0.16165,-9.3e-5 0.237,0.900795 0.19367,2.31557 -0.13469,4.398547 -0.2154,4.684053 -0.3366,1.190778 z m -1.58183,-3.243755 c -0.51141,-0.316068 -0.24834,-0.503602 0.38428,-0.273941 0.28139,0.102153 0.39476,0.257945 0.25195,0.346204 -0.14281,0.08826 -0.42911,0.05574 -0.63623,-0.07226 z m -0.25961,-17.077669 c 0,-0.22687 0.11083,-0.34399 0.2463,-0.260268 0.45371,0.280408 0.6341,-0.461603 0.19099,-0.785611 -0.55104,-0.402932 -0.55951,-0.819367 -0.0209,-1.026065 0.40979,-0.157253 0.44262,-1.005364 0.0371,-0.959676 -0.41154,0.04637 -0.98231,-0.764008 -0.96185,-1.365636 0.0115,-0.337817 0.0809,-0.465384 0.15434,-0.283483 0.30937,0.766707 2.57514,-0.07111 2.89198,-1.069374 0.17987,-0.56674 -0.0957,-0.973889 -0.36962,-0.546124 -0.10122,0.158073 -0.45194,0.371007 -0.77936,0.473189 -0.49235,0.153649 -0.59531,0.08584 -0.59531,-0.39206 0,-0.475149 0.11867,-0.555154 0.66777,-0.450188 0.36727,0.07021 0.71922,0.04441 0.7821,-0.05733 0.0629,-0.101743 0.46831,-0.133032 0.90096,-0.06953 0.53193,0.07807 0.74142,0.233259 0.64701,0.479303 -0.0768,0.200118 0.22015,0.723625 0.65987,1.163349 0.59642,0.596427 1.04385,0.7995 1.76151,0.7995 1.18683,0 0.99387,0.51612 -0.20932,0.559858 -0.46435,0.01688 -0.63592,0.08514 -0.38126,0.151694 0.38855,0.101536 0.46302,0.437052 0.46302,2.085972 v 1.964976 h -3.0427 c -2.57944,0 -3.04271,-0.0628 -3.04271,-0.412491 z m 2.64583,-1.439593 c 0,-0.727604 -0.11906,-1.322916 -0.26458,-1.322916 -0.14553,0 -0.26459,0.595312 -0.26459,1.322916 0,0.727605 0.11906,1.322917 0.26459,1.322917 0.14552,0 0.26458,-0.595312 0.26458,-1.322917 z m 2.06502,-0.06852 c 0.0717,-1.115317 0.0204,-1.254392 -0.46302,-1.254392 -0.47706,0 -0.54367,0.164457 -0.54367,1.342316 0,1.135504 0.0713,1.328772 0.46302,1.254392 0.34889,-0.06625 0.4829,-0.397145 0.54367,-1.342316 z m 1.10998,-0.196059 c 0,-0.881944 -0.11759,-1.5875 -0.26458,-1.5875 -0.29121,0 -0.37109,2.715723 -0.0882,2.99861 0.32035,0.320353 0.35278,0.190641 0.35278,-1.41111 z m -2.38125,-0.132292 c 0,-0.800364 -0.11906,-1.455208 -0.26458,-1.455208 -0.14553,0 -0.26459,0.654844 -0.26459,1.455208 0,0.800365 0.11906,1.455209 0.26459,1.455209 0.14552,0 0.26458,-0.654844 0.26458,-1.455209 z m -2.20051,-0.711067 c -0.0845,-0.211066 -0.14716,-0.148373 -0.15985,0.159853 -0.0115,0.278913 0.051,0.435184 0.13896,0.347266 0.0879,-0.08792 0.0973,-0.316125 0.0209,-0.507119 z m 2.20051,-1.802474 c 0,-0.291042 -0.11906,-0.529167 -0.26458,-0.529167 -0.14553,0 -0.26459,0.238125 -0.26459,0.529167 0,0.291041 0.11906,0.529166 0.26459,0.529166 0.14552,0 0.26458,-0.238125 0.26458,-0.529166 z m 0,-1.455209 c 0,-0.363802 -0.11906,-0.661458 -0.26458,-0.661458 -0.14553,0 -0.26459,0.297656 -0.26459,0.661458 0,0.363802 0.11906,0.661459 0.26459,0.661459 0.14552,0 0.26458,-0.297657 0.26458,-0.661459 z M 167.386,66.993524 c 0,-0.0798 0.23812,-0.293804 0.52916,-0.475562 0.31367,-0.195889 0.52917,-0.221808 0.52917,-0.06364 0,0.146754 0.17859,0.266825 0.39687,0.266825 0.21829,0 0.39688,0.105034 0.39688,0.233412 0,0.128376 -0.41672,0.222306 -0.92604,0.208735 -0.50933,-0.01357 -0.92604,-0.08997 -0.92604,-0.169767 z m 0.44097,-27.965442 c -0.33991,-0.33991 -0.17733,-0.865695 0.22048,-0.713041 0.21829,0.08376 0.39688,0.0205 0.39688,-0.140594 0,-0.161092 -0.12609,-0.292892 -0.2802,-0.292892 -0.15411,0 -0.20541,-0.121004 -0.11401,-0.268898 0.28522,-0.461502 0.65879,-1.03e-4 0.65879,0.813681 0,0.731739 -0.44698,1.036711 -0.88194,0.601744 z m 0.35278,-3.169483 c 0,-0.32812 -0.20836,-0.721561 -0.46303,-0.874313 -0.44097,-0.264504 -0.44097,-0.290957 0,-0.555461 0.38889,-0.233265 0.46303,-0.679384 0.46303,-2.786428 0,-1.98588 -0.0827,-2.540439 -0.39688,-2.660994 -0.21828,-0.08376 -0.39687,-0.377682 -0.39687,-0.653156 0,-0.27547 -0.11907,-0.500858 -0.26459,-0.500858 -0.15679,0 -0.26458,-0.97014 -0.26458,-2.381251 0,-1.41111 0.10779,-2.38125 0.26458,-2.38125 0.14552,0 0.26459,-0.225388 0.26459,-0.500858 0,-0.275474 0.17215,-0.566923 0.38256,-0.647666 0.24786,-0.09511 0.41696,-0.640779 0.48023,-1.549662 0.0537,-0.77157 0.11968,0.339196 0.1466,2.468372 l 0.0489,3.871227 1.12448,-0.03477 1.12448,-0.03477 0.0725,4.595407 c 0.0509,3.222758 -0.0202,4.707099 -0.2378,4.969333 -0.18874,0.227418 -0.70958,0.350369 -1.3293,0.313801 -0.86318,-0.05093 -1.01896,-0.151331 -1.01896,-0.656706 z m 2.32437,-4.425056 c 0.0671,-2.558494 0.0282,-2.858008 -0.35236,-2.711979 -0.23529,0.09029 -0.53712,0.164158 -0.67074,0.164158 -0.13362,0 -0.24294,1.258438 -0.24294,2.796527 0,2.748764 0.0102,2.795082 0.59531,2.711979 0.57021,-0.08098 0.59849,-0.205833 0.67073,-2.960685 z m -1.86442,-1.017598 c -0.0536,-0.768863 -0.0981,-0.207306 -0.0987,1.247902 -7.9e-4,1.455208 0.0432,2.084276 0.0975,1.397931 0.0543,-0.686345 0.0549,-1.87697 0.001,-2.645833 z m -0.45995,-2.705232 c 0,-0.06417 -0.11907,-0.190262 -0.26459,-0.280199 -0.14552,-0.08994 -0.26458,-0.03743 -0.26458,0.116676 0,0.154109 0.11906,0.280199 0.26458,0.280199 0.14552,0 0.26459,-0.0525 0.26459,-0.116676 z m 0.14874,-10.135933 c 0.15853,-0.622871 -0.26114,-0.837806 -0.51661,-0.264583 -0.0811,0.181901 -0.12075,0.0424 -0.0882,-0.310005 0.0326,-0.352403 0.20797,-0.689726 0.38979,-0.749607 0.48525,-0.159808 0.7099,0.66783 0.36339,1.338803 l -0.29989,0.580705 z m -0.0694,-5.357813 c 0,-0.800364 0.0496,-1.127786 0.11022,-0.727604 0.0606,0.400183 0.0606,1.055026 0,1.455209 -0.0606,0.400182 -0.11022,0.07276 -0.11022,-0.727605 z m -0.0793,-29.236455 c 0,-7.68835 0.0808,-13.898068 0.17944,-13.799373 0.2055,0.205499 0.16208,27.4366681 -0.0441,27.6428209 -0.0745,0.074454 -0.13537,-6.1550975 -0.13537,-13.8434479 z m -0.34723,-15.649001 c -0.10005,-0.100047 -0.1725,-0.429948 -0.16101,-0.733118 0.0115,-0.303168 0.0809,-0.402386 0.15434,-0.220485 0.0734,0.181901 0.22511,0.330729 0.33715,0.330729 0.34817,0 -0.019,-2.761454 -0.40843,-3.071876 -0.48549,-0.386977 -0.47018,-1.065834 0.0283,-1.257139 0.31445,-0.120666 0.39688,-0.677206 0.39688,-2.679811 0,-2.389137 -0.0337,-2.542879 -0.61567,-2.808036 -0.5806,-0.264539 -0.61928,-0.437571 -0.67898,-3.037039 -0.0417,-1.814967 0.0331,-2.756516 0.2188,-2.756516 0.15515,0 0.2821,-0.195234 0.2821,-0.433853 0,-0.238617 0.16881,-0.566039 0.37513,-0.727604 0.25457,-0.19934 0.40402,-0.995313 0.46499,-2.476564 0.0825,-2.004917 -0.0644,-2.684595 -0.40031,-1.852083 -0.0734,0.181901 -0.14103,0.0926 -0.15029,-0.198438 -0.0214,-0.671658 0.41094,-1.372104 0.68049,-1.102556 0.11277,0.112771 0.16733,2.589977 0.12125,5.504905 l -0.0838,5.299867 0.88913,-0.0766 c 1.52859,-0.131696 1.54297,-0.08691 1.54297,4.804752 v 4.477263 l -0.66571,0.167079 c -0.36613,0.09189 -0.91139,0.102833 -1.21167,0.02432 -0.51044,-0.133483 -0.54029,-0.04674 -0.45877,1.333089 0.0811,1.37227 -0.18073,1.965945 -0.65695,1.489729 z m 1.14102,-7.634333 c 0,-1.36947 -0.11862,-2.555621 -0.26459,-2.645833 -0.17004,-0.105092 -0.26458,0.840303 -0.26458,2.645833 0,1.80553 0.0945,2.750926 0.26458,2.645834 0.14597,-0.09021 0.26459,-1.276363 0.26459,-2.645834 z m 1.5303,-0.198437 c 0.0413,-1.564349 0.004,-2.844271 -0.0835,-2.844271 -0.0872,0 -0.38893,0.123251 -0.67041,0.273891 -0.45377,0.242856 -0.51177,0.574763 -0.51177,2.928819 0,2.60192 0.0119,2.653239 0.59531,2.570379 0.5697,-0.08091 0.59854,-0.206909 0.67041,-2.928818 z m -1.0642,-9.116817 c 0.32912,-0.06329 0.80537,-0.06088 1.05833,0.0053 0.25297,0.06622 -0.0163,0.118004 -0.59839,0.115067 -0.58209,-0.0029 -0.78906,-0.05712 -0.45994,-0.120407 z m -1.52444,-9.851423 c 0,-0.427974 0.11906,-0.85172 0.26459,-0.941656 0.15745,-0.09732 0.26458,0.217738 0.26458,0.778135 0,0.517911 -0.11906,0.941656 -0.26458,0.941656 -0.14553,0 -0.26459,-0.35016 -0.26459,-0.778135 z"
         id="path187"
         sodipodi:nodetypes="sscccsssssscssscsscsssssscsssscscsssssssssssssssscsssscsssssscsssssscsssssscccsssssssssssssssssccsscsscsssssssssssscsscsssssssssccsssccssssssssssssscssssssssscscsssssssssssssssssssssssssssssssssscsscscccscsssssssssssssscsssscssssssscccsssssssssssssssscssssssssssssssssscssccsccsscccsscccccsccsscccsscssssssssssssssssssccscsccssccsssssssssssssssssssssssssssscsssssscssssscssssscssssssscsccssssssssssssssssssssccssssssssssssssssssssssssssscsssssssssscccccccscccsssscccsccsssssscccscsscssccccccccsccsscssscscsccsscsccccssscscscsscccccccscsss"
         transform="translate(-117.60747,-3.3299789)" /><ellipse
         style="fill:#fcff26;fill-opacity:1;stroke:#000000;stroke-width:0.0512199;stroke-linecap:round;stroke-linejoin:round;stroke-dasharray:none;stroke-opacity:1"
         id="path1028"
         cx="168.24516"
         cy="83.864616"
         rx="8.5195913"
         ry="8.1959791"
         transform="translate(-117.60747,-3.3299789)" /><path
         style="fill:#000000;fill-opacity:1;stroke:#000000;stroke-width:0.05;stroke-dasharray:none;stroke-opacity:1"
         d="m 43.685669,290.25025 c 0,-0.3489 -2.19017,-0.39687 -18.12396,-0.39687 -17.9475595,0 -18.1239495,-0.005 -18.1239495,-0.52917 0,-0.52398 0.17639,-0.52917 17.9760495,-0.52917 10.2959,0 18.03859,-0.1012 18.12243,-0.23685 0.0805,-0.13028 -0.0315,-0.30515 -0.24897,-0.38857 -0.52439,-0.20124 -0.52318,-1.72339 0.002,-1.92474 0.22623,-0.0868 0.39688,-0.48141 0.39688,-0.91773 0,-0.50401 -0.13556,-0.76544 -0.39688,-0.76544 -0.27718,0 -0.39687,-0.27929 -0.39687,-0.92604 0,-0.64675 0.11969,-0.92604 0.39687,-0.92604 0.2655,0 0.39688,-0.26551 0.39688,-0.80206 0,-0.46887 -0.16487,-0.86532 -0.39688,-0.95435 -0.24487,-0.094 -0.39687,-0.49612 -0.39687,-1.05003 0,-0.62158 0.12207,-0.89773 0.39687,-0.89773 0.28663,0 0.39688,-0.29398 0.39688,-1.05833 0,-0.78431 -0.10732,-1.05834 -0.41445,-1.05834 -0.29603,0 -0.39053,-0.20788 -0.33073,-0.7276 l 0.0837,-0.72761 2.43076,-0.0759 c 2.42546,-0.0757 2.43094,-0.0774 2.51354,-0.79375 0.0589,-0.5112 0.25418,-0.74224 0.6781,-0.80246 0.81802,-0.11615 0.78515,-1.13855 -0.0662,-2.05711 -1.01968,-1.10024 -0.91611,-2.47472 0.26458,-3.51139 l 0.92604,-0.81306 8e-4,-4.70443 c 7.9e-4,-4.33263 -0.0451,-4.79096 -0.57901,-5.79905 -0.55739,-1.05238 -0.56359,-1.14464 -0.16078,-2.39186 0.36908,-1.14279 0.37634,-1.56377 0.0609,-3.5356 -0.19692,-1.23108 -0.35966,-2.47648 -0.36162,-2.76752 -0.002,-0.29104 -0.0238,-2.67229 -0.0486,-5.29167 -0.0422,-4.46772 -0.009,-4.82626 0.53857,-5.79284 0.51984,-0.91778 0.57457,-1.34046 0.50102,-3.8691 -0.0623,-2.1417 -0.16404,-2.8075 -0.41438,-2.71143 -0.18249,0.07 -0.62145,0.0546 -0.97545,-0.0342 -0.63659,-0.15975 -0.64216,-0.18833 -0.50825,-2.60821 0.0745,-1.34567 0.23719,-2.6848 0.36161,-2.97584 0.12443,-0.29105 0.27326,-0.91612 0.33074,-1.38907 0.0857,-0.70511 0.014,-0.85989 -0.39825,-0.85989 -0.99092,0 -0.38928,-0.91152 0.76193,-1.15438 1.05566,-0.2227 1.0786,-0.25016 0.80798,-0.9671 -0.20159,-0.53409 -0.18722,-1.12866 0.052,-2.1525 0.25418,-1.08772 0.29936,-5.41861 0.19554,-18.74477 -0.0743,-9.53162 -0.13421,-18.13388 -0.1332,-19.11615 0.001,-1.388 -0.084,-1.78594 -0.38343,-1.78594 -0.66497,0 -0.76364,-0.851 -0.18882,-1.62848 0.43023,-0.58193 0.5407,-1.13235 0.5407,-2.69416 0,-1.74159 -0.0671,-2.00752 -0.59531,-2.35948 -0.55541,-0.37007 -0.59452,-0.58167 -0.58341,-3.1564 0.0103,-2.3789 0.0896,-2.86879 0.57465,-3.55003 0.54226,-0.76154 0.56108,-1.04003 0.51726,-7.65358 l -0.0456,-6.86329 -1.22679,-0.58256 c -2.13769,-1.01513 -3.14208,-3.22162 -2.55244,-5.60732 0.33623,-1.36042 1.62354,-2.76147 2.93496,-3.19427 0.76659,-0.253 0.93611,-0.45573 1.07288,-1.28306 0.0893,-0.54041 0.16375,-7.95474 0.16535,-16.47628 0.002,-13.21659 -0.0542,-15.56918 -0.38555,-16.00729 -0.21365,-0.28247 -0.39224,-0.93635 -0.39687,-1.45305 -0.008,-0.85012 -0.12309,-0.99518 -1.21418,-1.52527 -1.65671,-0.8049 -2.19589,-2.02482 -1.59284,-3.60389 0.33369,-0.87376 0.41735,-2.243917 0.41735,-6.835349 v -5.742522 l -0.99218,-0.635929 c -1.3375,-0.85725 -2.54269,-2.17438 -3.25475,-3.55705 -0.72168,-1.401339 -0.97699,-4.277231 -0.53542,-6.030889 0.44335,-1.760686 1.88473,-3.783896 3.44763,-4.839285 l 1.33472,-0.901303 v -1.79506 c 0,-0.987283 -0.11906,-1.868644 -0.26458,-1.958581 -0.49364,-0.305089 -0.29844,-1.961378 0.28874,-2.449986 0.30433,-0.253236 0.65857,-0.728322 0.7872,-1.055744 0.15652,-0.398412 0.45483,-0.595312 0.90189,-0.595312 0.49546,0 0.668,-0.139084 0.668,-0.538475 0,-0.296161 0.18388,-0.819107 0.40862,-1.1621 0.35906,-0.548002 0.39317,-2.223209 0.28128,-13.815169 -0.07,-7.255351 -0.12667,-13.898483 -0.12587,-14.762515 8e-4,-0.864031 -0.14983,-1.853644 -0.33473,-2.19914 -0.26354,-0.492424 -0.26747,-0.738224 -0.0181,-1.137422 0.41889,-0.670753 0.40975,-4.32825 -0.0127,-5.084083 -0.1819,-0.325448 -0.49668,-0.798602 -0.69949,-1.051457 -0.43019,-0.536305 -0.28155,-4.232079 0.20864,-5.187839 0.16082,-0.313573 0.42115,-0.82214 0.5785,-1.130146 0.15734,-0.308007 0.2712,-1.64746 0.25302,-2.976563 -0.0182,-1.329103 0.0147,-3.845301 0.073,-5.591551 0.0583,-1.7462499 0.049,-3.7342736 -0.0207,-4.4178296 -0.11458,-1.1236347 -0.20235,-1.2594347 -0.91519,-1.4159987 -1.19692,-0.26289 -2.71233,-1.9338055 -3.08073,-3.39686674 -0.57683,-2.29076776 0.64436,-4.66244526 2.85646,-5.54754796 1.01411,-0.4057676 1.03582,-0.4432115 1.20485,-2.0779026 0.0947,-0.9155774 0.10988,-7.7964064 0.0338,-15.2907304 -0.0761,-7.494323 -0.13792,-14.359681 -0.1374,-15.256354 5.3e-4,-0.89667 -0.12373,-1.707369 -0.27612,-1.801551 -0.35302,-0.218178 -0.36259,-1.64343 -0.0125,-1.859804 0.14552,-0.08994 0.26459,-1.121574 0.26459,-2.292524 0,-1.912123 -0.0708,-2.213113 -0.69475,-2.954661 -0.65975,-0.784068 -0.68823,-0.939837 -0.5655,-3.092466 0.0711,-1.246743 0.26466,-2.529493 0.43017,-2.850557 0.1655,-0.321061 0.40804,-0.801148 0.53897,-1.066856 0.13093,-0.26571 0.25102,-3.540482 0.26685,-7.277276 l 0.0288,-6.794169 -1.05723,-0.423022 c -2.01456,-0.806066 -3.45056,-3.277374 -3.03264,-5.219047 0.41084,-1.90877 1.05421,-2.636129 3.40797,-3.852872 1.34416,-0.694837 1.63134,-0.760463 1.98438,-0.453453 0.22703,0.197428 0.83962,0.495827 1.36132,0.66311 1.5798,0.506565 3.15248,2.645523 3.15248,4.287619 0,0.906933 -0.56948,2.568892 -1.05495,3.078717 -2.092746,2.047981 -3.311144,3.655859 -3.29223,6.596353 0.0102,1.499408 0.0825,2.790224 0.16074,2.868481 -0.07692,2.051452 -0.04533,3.554348 -0.04686,4.548535 0,1.469282 0.0909,1.909239 0.42075,2.035805 0.58616,0.22493 0.91005,-0.03671 0.71346,-0.576339 -0.14543,-0.399172 -0.0957,-0.393145 0.40842,0.04948 0.56299,0.494332 0.57404,0.644739 0.57404,7.818438 0,5.336207 -0.0859,7.400277 -0.3175,7.631909 -0.17463,0.174625 -0.66362,0.3175 -1.08664,0.3175 -0.59266,0 -0.73229,0.09603 -0.60855,0.418515 0.0883,0.230182 0.1606,0.591558 0.1606,0.803058 0.01451,4.032788 -0.108399,11.085586 -0.09643,15.182595 -0.02215,8.81962 -0.684429,15.2867114 2.7125,18.0026035 0.80721,0.8072146 1.34845,2.1846355 1.35121,3.43873136 0.002,1.0542297 -1.10082,2.96964914 -2.08817,3.62580254 l -0.89905,0.5974603 c -0.735701,0.7251259 -1.069468,1.4051417 -1.14562,3.3956307 -0.14442,-0.275222 -0.22121,0.569642 -0.20439,2.2489577 0.237118,4.2833529 0.113639,1.0570079 0.10538,6.6324719 0,1.680798 0.0209,1.737284 0.52618,1.421734 0.44534,-0.278115 0.61052,-0.244266 1.07509,0.2203 0.52995,0.529949 0.54837,0.802901 0.5335,7.904395 -0.0106,5.04833 -0.10898,7.468246 -0.31373,7.714962 -1.15437,-0.07815 -2.054246,8.68866 -2.06708,15.627126 l -0.0186,12.489535 c -0.153925,2.820688 0.541703,3.098971 1.7221,3.8784 2.01133,0.37733 2.95983,2.154775 1.71749,3.218503 -0.42169,0.361058 -0.52917,0.780505 -0.52917,2.065073 0,1.577856 0.0194,1.621218 0.91439,2.048028 1.47634,0.70402 2.98458,2.24517 3.77032,3.852606 0.62497,1.278533 0.73221,1.827263 0.73221,3.74686 0,1.919597 -0.10724,2.468327 -0.73221,3.74686 -0.78574,1.607437 -2.29398,3.148587 -3.77032,3.852606 l -0.91439,0.436042 v 5.771835 c 0,5.419052 0.0323,5.804169 0.52917,6.300999 0.68482,0.68482 0.68719,2.10899 0.005,2.97631 -0.28832,0.36654 -1.00269,0.85788 -1.5875,1.09188 -0.79185,0.31683 -1.06328,0.57458 -1.06328,1.00967 -0.689604,0.9683 -0.713312,0.92115 -0.79375,3.09471 l 0.0168,14.76528 c 0.009,8.32408 0.11436,14.52393 0.24049,14.21204 -0.09781,1.76433 -0.08671,2.33976 0.0073,2.87959 0,0.20891 0.53783,0.58523 1.19518,0.83627 2.68179,1.02418 3.77253,4.44738 2.22691,6.98895 -0.28326,0.46578 -0.78215,0.95427 -1.10865,1.08554 -1.364704,0.75798 -2.462092,1.11254 -2.26216,3.71004 -0.13916,-0.37637 -0.20422,4.27753 -0.0749,5.35957 0,0 -0.04407,2.77738 -0.0042,2.79473 l 0.0801,1.54612 c 0.0723,1.39608 0.14071,1.5547 0.70477,1.63452 0.41906,0.0593 0.56266,-0.012 0.43625,-0.21647 -0.10363,-0.16768 -0.35497,-0.24096 -0.55853,-0.16285 -0.20356,0.0781 -0.37011,0.0267 -0.37011,-0.11425 0,-0.43579 0.9526,-0.2825 1.4142,0.22757 0.38548,0.42596 0.43788,1.36942 0.43788,7.88458 0,7.89704 -0.0226,8.0355 -1.30969,8.036 -0.63275,2.4e-4 -0.6812,0.0948 -0.77957,1.52135 -0.20501,2.9731 -0.13705,35.93516 0.0763,36.99074 0.14403,0.71273 0.40775,1.15758 0.78427,1.32291 0.312,0.13701 0.60373,0.50486 0.64828,0.81746 0.0446,0.31258 0.31245,0.62886 0.59532,0.70281 0.65647,0.17169 0.66627,0.723 0.0159,0.8931 -0.32479,0.0849 -0.45502,0.29634 -0.37383,0.60683 0.0685,0.26207 -0.005,0.55647 -0.16303,0.65426 -0.36249,0.22402 -0.38296,3.76055 -0.023,3.98298 0.14552,0.0899 0.26459,0.39463 0.26459,0.67707 0,0.28247 0.17859,0.51356 0.39687,0.51356 0.21828,0 0.39688,0.17859 0.39688,0.39687 -1.007222,1.56645 -0.847919,0.99333 -1.56214,1.26204 -0.86936,0.32816 -1.07589,1.05873 -1.08078,3.82315 -0.002,1.19478 0.15168,1.9196 0.5614,2.64583 0.52077,0.92305 0.56166,1.3575 0.53003,5.63044 -0.0188,2.54662 -0.0364,5.0545 -0.039,5.57305 -0.003,0.51859 -0.17124,1.81684 -0.37477,2.88502 -0.3284,1.72355 -0.32236,2.08989 0.0537,3.25422 0.4114,1.27383 0.40593,1.34564 -0.18781,2.46483 -0.56304,1.06135 -0.61564,1.51286 -0.6632,5.69317 -0.0482,4.24117 -0.0167,4.57298 0.4793,5.03505 0.29203,0.27207 0.60847,0.49466 0.70319,0.49466 0.29366,0 0.78633,1.3098 0.78633,2.09048 0,0.42547 -0.28252,1.04751 -0.66146,1.45639 -0.8513,0.91856 -0.88417,1.94096 -0.0662,2.05711 0.424,0.0602 0.61914,0.29126 0.67813,0.80278 l 0.0828,0.71823 2.56301,0.0755 c 2.43156,0.0717 2.56737,0.10612 2.64773,0.67204 0.0508,0.35779 -0.0816,0.66029 -0.33073,0.75591 -0.55844,0.21429 -0.57357,2.10217 -0.0186,2.31513 0.49609,0.19037 0.52164,1.39245 0.0356,1.67712 -0.19868,0.11636 -0.41499,0.59036 -0.48068,1.0533 -0.0925,0.65218 -0.0112,0.87003 0.36125,0.96743 0.59397,0.15531 0.65887,1.44637 0.0838,1.66706 -0.22064,0.0847 -0.39688,0.47781 -0.39688,0.88532 0,0.4032 0.17859,0.88127 0.39688,1.06243 0.21828,0.18116 0.39687,0.61619 0.39687,0.96674 0,0.35054 -0.17859,0.70591 -0.39687,0.78967 -0.21829,0.0838 -0.39688,0.25861 -0.39688,0.38857 0,0.13745 14.49823,0.23627 34.66042,0.23627 34.484031,0 34.660421,0.003 34.660421,0.52917 0,0.52647 -0.17639,0.52917 -34.668721,0.52917 -30.57257,0 -34.68672,0.0469 -34.82102,0.39687 -0.12995,0.33864 -1.15758,0.39688 -7.00316,0.39688 -5.91328,0 -6.85088,-0.0543 -6.85088,-0.39688 z m 13.2572,-0.7276 c 0.0154,-0.1819 0.006,-0.65844 -0.02,-1.05897 -0.0298,-0.45223 0.10995,-0.78886 0.36884,-0.88821 0.99045,-0.38007 0.24214,-0.61849 -2.16281,-0.68908 -2.08301,-0.0611 -2.57969,-0.15213 -2.57969,-0.4726 0,-0.31451 0.45308,-0.41283 2.18282,-0.47371 l 2.18281,-0.0769 v -0.92363 c 0,-0.57537 0.14908,-0.98087 0.39536,-1.07537 0.94082,-0.36103 -0.08,-0.62543 -2.41475,-0.62543 -2.25477,0 -2.5081,-0.0483 -2.42885,-0.46302 0.0743,-0.38859 0.43889,-0.47537 2.26835,-0.53985 l 2.17989,-0.0769 v -0.91532 c 0,-0.63725 0.12058,-0.91535 0.39687,-0.91535 0.21829,0 0.39688,-0.11907 0.39688,-0.26459 0,-0.15544 -0.91883,-0.26458 -2.22732,-0.26458 -2.45349,0 -3.06435,-0.1375 -3.06435,-0.68977 0,-0.28078 0.45695,-0.36952 1.91823,-0.37261 1.05503,-0.003 2.05258,-0.0915 2.21679,-0.19844 0.16421,-0.10692 0.34554,-0.69617 0.40297,-1.30945 l 0.10441,-1.11506 -2.25505,-0.0756 c -2.22801,-0.0747 -2.25604,-0.0841 -2.33708,-0.78563 -0.0973,-0.84201 -1.05354,-1.15496 -2.68627,-0.87911 -0.8735,0.14759 -1.04988,0.28668 -1.11873,0.88218 -0.0807,0.6977 -0.11133,0.70797 -2.33678,0.78256 l -2.25505,0.0756 0.10441,1.11506 c 0.0574,0.61328 0.23876,1.20253 0.40297,1.30945 0.16421,0.10692 1.16176,0.19622 2.21679,0.19844 1.46128,0.003 1.91823,0.0918 1.91823,0.37261 0,0.55227 -0.61087,0.68977 -3.06435,0.68977 -1.30849,0 -2.22732,0.10914 -2.22732,0.26458 0,0.14552 0.17859,0.26459 0.39687,0.26459 0.2763,0 0.39688,0.2781 0.39688,0.91535 v 0.91532 l 2.17989,0.0769 c 1.82945,0.0645 2.1941,0.15126 2.26835,0.53985 0.0795,0.41619 -0.18113,0.46302 -2.57676,0.46302 -2.43633,0 -3.28644,0.23419 -2.26836,0.62484 0.24791,0.0951 0.39688,0.49901 0.39688,1.07596 v 0.92363 l 2.18281,0.0769 c 1.72974,0.0609 2.18281,0.1592 2.18281,0.47371 0,0.32047 -0.49667,0.41146 -2.57968,0.4726 -2.38796,0.0701 -3.15328,0.30901 -2.18282,0.68141 0.26197,0.10054 0.39688,0.51491 0.39688,1.21894 v 1.06664 h 6.35 c 4.88866,0 6.35645,-0.0761 6.37803,-0.33073 z m -9.88377,-10.44536 c -0.5457,-0.0571 -1.43867,-0.0571 -1.98437,0 -0.5457,0.0571 -0.0992,0.1038 0.99219,0.1038 1.0914,0 1.53789,-0.0467 0.99218,-0.1038 z m 9.26741,0 c -0.54185,-0.0569 -1.49435,-0.0576 -2.11666,-0.003 -0.62231,0.0559 -0.17897,0.10242 0.98519,0.10337 1.16417,0 1.67333,-0.0448 1.13147,-0.10163 z m -6.37304,-6.35611 c -0.0665,-0.25466 -0.121,-0.0463 -0.121,0.46302 0,0.50933 0.0545,0.71769 0.121,0.46302 0.0666,-0.25466 0.0666,-0.67138 0,-0.92604 z m 0.87595,0.46345 c 0,-0.29105 -0.11907,-0.52917 -0.26459,-0.52917 -0.14552,0 -0.26458,0.23812 -0.26458,0.52917 0,0.29104 0.11906,0.52916 0.26458,0.52916 0.14552,0 0.26459,-0.23812 0.26459,-0.52916 z m 0.48389,-0.52917 c -0.0383,-0.97621 -0.0997,-1.05833 -0.79185,-1.05833 -0.92654,0 -0.95981,0.19804 -0.0889,0.52916 0.46449,0.17661 0.66146,0.4504 0.66146,0.91948 0,0.36743 0.0587,0.66802 0.13039,0.66802 0.0717,0 0.11172,-0.47625 0.0889,-1.05833 z m 0.0453,-2.24896 c 0.4044,-0.48728 -0.0645,-1.19062 -0.79375,-1.19062 -0.25541,0 -0.6126,0.17859 -0.79375,0.39687 -0.40441,0.48728 0.0645,1.19063 0.79375,1.19063 0.2554,0 0.61259,-0.1786 0.79375,-0.39688 z m -0.52917,-14.68437 c 0,-0.14553 -0.11907,-0.26459 -0.26459,-0.26459 -0.14552,0 -0.26458,0.11906 -0.26458,0.26459 0,0.14552 0.11906,0.26458 0.26458,0.26458 0.14552,0 0.26459,-0.11906 0.26459,-0.26458 z m 0.16468,-2.82356 c 0.0178,-0.93228 -0.0308,-1.6319 -0.10795,-1.55472 -0.0772,0.0772 -0.31171,-0.003 -0.52117,-0.17571 -0.32713,-0.27149 -0.35421,-0.103 -0.19204,1.19491 0.12513,1.00153 0.0876,1.63299 -0.11149,1.87281 -0.239,0.28797 -0.17779,0.36136 0.3,0.35978 0.5579,-0.003 0.60254,-0.12166 0.63265,-1.69707 z m 0.60269,-3.98947 c 0.0145,-0.1819 -0.0927,-0.33072 -0.23821,-0.33072 -0.14552,0 -0.25271,0.44648 -0.23821,0.99218 0.0236,0.88548 0.0492,0.92104 0.23821,0.33073 0.11651,-0.3638 0.22371,-0.81028 0.23821,-0.99219 z m -1.78946,-0.7276 -0.24767,-1.05833 -0.023,0.92604 c -0.0126,0.50932 0.0623,1.2237 0.16643,1.5875 0.31096,1.08598 0.40185,-0.18336 0.10421,-1.45521 z m 1.70492,-1.38972 c -0.28822,-0.28824 -0.39762,0.0886 -0.21474,0.73982 l 0.18252,0.6499 0.093,-0.61804 c 0.0511,-0.33991 0.0238,-0.68718 -0.0607,-0.77168 z m -1.212,-0.53795 c 0,-0.11436 -0.23812,-0.20789 -0.52917,-0.20789 -0.29104,0 -0.52916,0.0935 -0.52916,0.20789 0,0.11432 0.23812,0.20788 0.52916,0.20788 0.29105,0 0.52917,-0.0936 0.52917,-0.20788 z m 1.5875,-0.0319 c 0,-0.13189 -0.23812,-0.17754 -0.52917,-0.10141 -0.29104,0.0761 -0.52916,0.18401 -0.52916,0.23979 0,0.0558 0.23812,0.10144 0.52916,0.10144 0.29105,0 0.52917,-0.10792 0.52917,-0.23982 z m -1.6576,-4.45654 c -0.0545,-0.69122 -0.0991,-0.12567 -0.0991,1.25678 0,1.38244 0.0446,1.94799 0.0991,1.25677 0.0545,-0.69123 0.0545,-1.82232 0,-2.51355 z m 1.6576,0.72761 c 0,-2.6034 -0.0488,-2.90822 -0.46302,-2.88954 -0.27661,0.0124 -0.32987,0.0746 -0.13229,0.15436 0.23487,0.0948 0.33073,0.93223 0.33073,2.88951 0,1.51585 0.0595,2.75609 0.13229,2.75609 0.0728,0 0.13229,-1.30969 0.13229,-2.91042 z m -1.05833,-3.31581 c 0,-0.22297 0.26789,-0.50689 0.59531,-0.6309 0.45677,-0.17304 0.27204,-0.2291 -0.79375,-0.24093 -0.76398,-0.008 -1.38906,0.0931 -1.38906,0.22574 0,0.13261 0.18569,0.16986 0.41266,0.0828 0.27565,-0.10575 0.46158,0.0288 0.56002,0.40519 0.16942,0.64785 0.61482,0.76242 0.61482,0.15814 z m 0.0661,-1.88651 c -0.1819,-0.0734 -0.47956,-0.0734 -0.66146,0 -0.1819,0.0734 -0.0331,0.13346 0.33073,0.13346 0.3638,0 0.51263,-0.0601 0.33073,-0.13346 z m -0.41458,-4.90146 c -0.0845,-0.21106 -0.14715,-0.14838 -0.15985,0.15986 -0.0115,0.2789 0.051,0.43519 0.13897,0.34727 0.0879,-0.0879 0.0973,-0.31613 0.0209,-0.50713 z m 2.18869,-2.86334 c -0.64605,-0.15242 -0.64982,-0.17214 -0.68418,-3.57121 -0.0343,-3.39334 -0.0392,-3.41921 -0.68433,-3.59172 -0.58,-0.15513 -0.63642,-0.10393 -0.52541,0.47678 0.11093,0.58031 0.0445,0.64087 -0.61551,0.56086 -0.86179,-0.10451 -1.19733,0.43707 -0.39998,0.64559 0.65934,0.1724 0.72,0.97255 0.077,1.01518 -0.42952,0.0285 -0.42874,0.0396 0.0107,0.15375 0.41226,0.1071 0.46378,0.3865 0.39687,2.15212 -0.0758,2.00144 -0.0865,2.02906 -0.78098,2.02906 -0.38725,0 -0.80041,0.0957 -0.91814,0.21259 -0.11773,0.11692 0.30999,0.18167 0.95049,0.14388 0.6459,-0.0381 1.20616,0.0561 1.25799,0.21164 0.0657,0.1972 0.46002,0.19646 1.32928,-0.003 1.05057,-0.2404 1.13845,-0.30578 0.5862,-0.43606 z m -3.5108,-1.31339 c -0.12645,-0.82865 -0.44613,-0.95991 -0.44613,-0.18322 0,0.38806 0.11832,0.70556 0.26293,0.70556 0.1446,0 0.22705,-0.23505 0.1832,-0.52234 z m 2.9218,-6.51669 c -0.0879,-0.0879 -0.31612,-0.0973 -0.50712,-0.0209 -0.21106,0.0845 -0.14837,0.14716 0.15986,0.15986 0.27891,0.0114 0.43518,-0.0511 0.34726,-0.13898 z m -1.25126,-2.486 c 0,-0.14552 -0.11906,-0.26458 -0.26458,-0.26458 -0.14552,0 -0.26459,0.11906 -0.26459,0.26458 0,0.14553 0.11907,0.26459 0.26459,0.26459 0.14552,0 0.26458,-0.11906 0.26458,-0.26459 z m 0,-37.15834 c 0,-0.0642 -0.11906,-0.19027 -0.26458,-0.2802 -0.14552,-0.0899 -0.26459,-0.0374 -0.26459,0.11668 0,0.1541 0.11907,0.2802 0.26459,0.2802 0.14552,0 0.26458,-0.0525 0.26458,-0.11668 z m 0,-0.94166 c 0,-0.14552 -0.11906,-0.26458 -0.26458,-0.26458 -0.14552,0 -0.26459,0.11906 -0.26459,0.26458 0,0.14552 0.11907,0.26459 0.26459,0.26459 0.14552,0 0.26458,-0.11907 0.26458,-0.26459 z m 1.79917,-1.905 c 0.86792,-0.86792 0.0222,-1.79916 -1.63387,-1.79916 -1.04391,0 -1.49567,0.39631 -0.69149,0.6066 0.30507,0.0798 0.52619,0.36112 0.52619,0.6695 0,0.79045 1.18676,1.13547 1.79917,0.52306 z m -0.21167,-4.70958 c 0,-1.41111 -0.10779,-2.38125 -0.26458,-2.38125 -0.29368,0 -0.37633,4.29798 -0.0882,4.58611 0.3288,0.3288 0.35277,0.17893 0.35277,-2.20486 z m -1.39377,-1.12448 c -0.0557,-0.61846 -0.10128,-0.11245 -0.10128,1.12448 0,1.23693 0.0456,1.74294 0.10128,1.12448 0.0557,-0.61846 0.0557,-1.6305 0,-2.24896 z m 1.87437,-2.50191 c -0.0751,-0.64262 -0.19215,-0.71717 -1.14206,-0.7276 l -1.05833,-0.0117 -0.13229,-2.4581 c -0.12798,-2.37785 -0.14741,-2.44037 -0.59531,-1.9152 -0.37384,0.43832 -0.46303,1.05195 -0.46303,3.1857 v 2.64281 h 1.73737 c 1.7327,0 1.73714,-0.002 1.65365,-0.71597 z m -3.12643,-0.0778 c 0,-0.29398 0.17639,-0.52916 0.39687,-0.52916 0.22049,0 0.39688,0.23518 0.39688,0.52916 0,0.29398 -0.17639,0.52917 -0.39688,0.52917 -0.22048,0 -0.39687,-0.23519 -0.39687,-0.52917 z m 1.75965,-1.71131 c -0.082,-0.21363 -0.0352,-0.45878 0.10399,-0.54479 0.13916,-0.086 0.26684,0.11854 0.28372,0.45455 0.0225,0.44825 0.0629,0.48764 0.15169,0.14791 0.0666,-0.25466 0.35039,-0.46302 0.63076,-0.46302 0.7334,0 0.62384,-0.60661 -0.17665,-0.97811 -0.57248,-0.26567 -0.65866,-0.25503 -0.53541,0.0662 0.0808,0.21054 0.0161,0.38279 -0.1438,0.38279 -0.189,0 -0.24431,-0.43962 -0.15812,-1.25677 0.0729,-0.69122 0.074,-1.09447 0.002,-0.8961 -0.10991,0.3045 -0.16577,0.3045 -0.35869,0 -0.14061,-0.22194 -0.23006,0.37717 -0.23256,1.55756 -0.003,1.22846 0.10127,1.91823 0.28884,1.91823 0.16109,0 0.22583,-0.17478 0.14385,-0.3884 z m 1.41535,-3.05119 c 0,-0.14552 -0.11204,-0.26458 -0.24897,-0.26458 -0.13693,0 -0.32255,0.11906 -0.41249,0.26458 -0.0899,0.14552 0.0221,0.26459 0.24897,0.26459 0.22687,0 0.41249,-0.11907 0.41249,-0.26459 z m -2.19887,-11.04639 c -0.0666,-0.25466 -0.121,-0.0463 -0.121,0.46302 0,0.50932 0.0545,0.71768 0.121,0.46302 0.0666,-0.25466 0.0666,-0.67138 0,-0.92604 z m 2.40133,-5.79034 c 0.81702,-0.62316 1.64962,-2.0031 1.64962,-2.73404 0,-0.17641 -1.50864,-0.27308 -4.26202,-0.27308 h -4.26201 l 0.17857,0.71147 c 0.71992,2.8684 4.32463,4.10426 6.69584,2.29565 z m -0.4009,-3.46855 c -1.20055,-0.049 -3.16508,-0.049 -4.36562,0 -1.20055,0.049 -0.21829,0.0891 2.18281,0.0891 2.40109,0 3.38336,-0.0401 2.18281,-0.0891 z m 1.90851,-0.92763 c -0.45606,-1.52811 -1.80642,-2.68595 -3.50742,-3.00738 -1.78862,-0.33799 -4.10972,1.15609 -4.67206,3.00738 l -0.18084,0.59531 h 4.269 4.26899 z m -3.7606,-39.53204 c -0.1819,-0.0734 -0.47955,-0.0734 -0.66146,0 -0.1819,0.0734 -0.0331,0.13345 0.33073,0.13345 0.36381,0 0.51263,-0.0601 0.33073,-0.13345 z m -1.50925,-1.16728 c 0.23313,-0.3772 -0.90434,-1.56791 -1.49782,-1.56791 -0.81222,0 -0.79257,0.45745 0.0501,1.16651 0.89268,0.75114 1.182,0.83136 1.44773,0.4014 z m 2.58124,-1.23718 c 0.29788,-0.32742 0.78875,-0.58591 1.0908,-0.57442 0.38175,0.0145 0.42819,0.0651 0.15232,0.16596 -0.51561,0.18849 -1.5875,1.16535 -1.5875,1.44677 0,0.46851 1.28173,0.18502 1.94574,-0.43036 0.72813,-0.67482 0.80011,-0.93538 0.53333,-1.93087 -0.10886,-0.40621 -0.35984,-0.59531 -0.79014,-0.59531 -0.34683,0 -0.6306,0.10633 -0.6306,0.23628 0,0.12995 -0.20168,0.31367 -0.44819,0.40826 -0.42075,0.16146 -0.42072,0.14164 5.3e-4,-0.3239 0.58236,-0.64349 0.34137,-0.85828 -0.64545,-0.57526 -0.43376,0.1244 -1.40706,0.1589 -2.1629,0.0767 -1.31734,-0.14332 -1.35234,-0.13088 -0.84508,0.3004 l 0.52917,0.44992 -0.52917,-0.18329 c -0.98894,-0.34253 -1.32185,-0.26245 -1.40734,0.33853 -0.071,0.49914 0.0384,0.59531 0.67725,0.59531 0.49622,0 1.05625,0.28775 1.6059,0.82514 0.46419,0.45383 0.84398,0.69196 0.84398,0.52917 0,-0.49328 0.79218,-0.33084 0.81464,0.16704 0.0165,0.36616 0.0512,0.38 0.16597,0.0661 0.0798,-0.21828 0.3888,-0.66477 0.68669,-0.99219 z m -1.83027,-0.183 c -0.23997,-0.62536 0.005,-1.32619 0.49674,-1.42088 0.36763,-0.0708 0.45998,0.10123 0.45998,0.85686 0,0.67261 -0.11692,0.94544 -0.40518,0.94544 -0.22285,0 -0.47104,-0.17164 -0.55154,-0.38142 z m 3.26648,-4.838199 c -0.0573,-0.54895 -0.1051,-0.16465 -0.10627,0.853992 -0.001,1.01865 0.0457,1.467787 0.10413,0.99809 0.0585,-0.4697 0.0594,-1.30313 0.002,-1.852082 z m -5.55759,0.13113 c -0.0589,-0.47555 -0.10828,-0.15026 -0.10977,0.722862 -0.002,0.87313 0.0467,1.26221 0.10707,0.86464 0.0604,-0.39758 0.0616,-1.11195 0.003,-1.587502 z m 3.17465,-0.26932 c -0.0587,-0.47295 -0.10672,-0.086 -0.10672,0.859892 0,0.94589 0.048,1.33284 0.10672,0.8599 0.0587,-0.47295 0.0587,-1.24685 0,-1.719792 z m -1.58939,0.13229 c -0.0606,-0.40019 -0.11023,-0.0728 -0.11023,0.727602 0,0.80037 0.0496,1.12779 0.11023,0.72761 0.0606,-0.40019 0.0606,-1.05503 0,-1.455212 z m -1.3195,-1.28434 c -0.0879,-0.0879 -0.31613,-0.0973 -0.50712,-0.0209 -0.21107,0.0845 -0.14838,0.14716 0.15985,0.15985 0.27891,0.0115 0.43519,-0.051 0.34727,-0.13896 z m 2.91041,0 c -0.0879,-0.0879 -0.31612,-0.0973 -0.50712,-0.0209 -0.21106,0.0845 -0.14837,0.14716 0.15986,0.15985 0.27891,0.0115 0.43518,-0.051 0.34726,-0.13896 z m 2.38422,-5.99171 c -0.0517,-0.909505 -0.0939,-0.165364 -0.0939,1.653646 0,1.819014 0.0423,2.563154 0.0939,1.653644 0.0517,-0.909503 0.0517,-2.397784 0,-3.30729 z m -5.55633,0.406535 c -0.0527,-0.842057 -0.0962,-0.221326 -0.0968,1.379403 -5.3e-4,1.600732 0.0425,2.289682 0.0958,1.531012 0.0533,-0.758669 0.0537,-2.068357 0.001,-2.910415 z m 1.58721,-0.274243 c -0.0525,-0.836745 -0.0955,-0.152135 -0.0955,1.521354 0,1.673494 0.043,2.358104 0.0955,1.521354 0.0525,-0.836744 0.0525,-2.205963 0,-3.042708 z m 2.18573,1.521354 v -2.910416 h -0.79375 -0.79375 v 2.910416 2.910414 h 0.79375 0.79375 z m -0.0661,-3.898646 c -0.69123,-0.0545 -1.82232,-0.0545 -2.51354,0 -0.69123,0.0545 -0.12568,0.0991 1.25677,0.0991 1.38244,0 1.94799,-0.04459 1.25677,-0.0991 z m 5.34076,-2.621878 c 2.36101,-2.571014 2.72849,-5.68371 1.0441,-8.843957 -0.95385,-1.7896 -2.61935,-3.258757 -4.17563,-3.683363 -0.90921,-0.248063 -6.44596,-0.510947 -6.22963,-0.295783 0.0571,0.05678 -0.33953,0.336595 -0.88139,0.6218 -3.17179,1.669465 -4.9766,5.696866 -4.06393,9.068605 0.39681,1.46594 1.64425,3.354869 2.79537,4.232873 0.95536,0.728689 0.99168,0.734023 4.63286,0.680691 2.3865,-0.03496 3.7314,0.04565 3.84564,0.230486 0.26814,0.433867 1.59567,-0.446606 3.03261,-2.011352 z m -7.61138,-15.138305 c -0.0785,-1.386149 -0.0293,-1.566762 0.46144,-1.69509 0.45642,-0.119356 0.52157,-0.282051 0.38547,-0.962565 -0.14321,-0.715992 -0.091,-0.818933 0.41537,-0.818933 0.49407,0 0.56696,0.126344 0.4961,0.859896 l -0.0831,0.859896 1.17193,-0.0548 c 0.77252,-0.03613 1.35614,-0.239017 1.71244,-0.595313 l 0.54051,-0.540509 -0.7864,-0.0313 -0.7864,-0.03131 0.79375,-0.17984 0.79375,-0.17984 -0.84676,-0.450315 c -0.952,-0.506283 -2.33949,-0.595635 -2.60397,-0.167693 -0.0961,0.155443 -0.34746,0.216315 -0.55865,0.135276 -0.21118,-0.08104 -0.67911,0.04604 -1.03982,0.282387 -0.36072,0.236353 -0.71149,0.374095 -0.77949,0.306094 -0.068,-0.068 0.16266,-0.276857 0.51258,-0.464129 0.34993,-0.187272 0.68589,-0.600306 0.74659,-0.917851 0.0965,-0.504613 0.0136,-0.563155 -0.65763,-0.464637 -0.4224,0.06199 -0.84205,0.306176 -0.93256,0.542623 -0.0905,0.236451 -0.40847,0.634307 -0.70659,0.884127 -0.54044,0.452879 -0.54009,0.454295 0.11943,0.479793 0.65593,0.02537 0.65652,0.02756 0.0705,0.263228 -0.67881,0.273011 -0.56521,0.929836 0.19521,1.128692 0.36978,0.0967 0.45405,0.285922 0.33563,0.753676 -0.087,0.343508 -0.28761,0.712033 -0.44589,0.818946 -0.19653,0.132742 -0.18291,0.19567 0.0429,0.198438 0.1819,0.0021 0.33073,0.291785 0.33073,0.643461 0,0.351674 -0.14883,0.699463 -0.33073,0.772861 -0.18191,0.0734 0.086,0.143068 0.59531,0.154821 l 0.92604,0.02138 -0.0878,-1.551458 z m -0.53188,0.756745 c 0,-0.363802 0.0601,-0.51263 0.13345,-0.330729 0.0734,0.181901 0.0734,0.479558 0,0.661459 -0.0734,0.181901 -0.13345,0.03307 -0.13345,-0.33073 z m -0.0209,-1.741839 c 0.0127,-0.308226 0.0754,-0.370919 0.15985,-0.159853 0.0764,0.190994 0.067,0.4192 -0.0209,0.507119 -0.0879,0.08792 -0.15045,-0.06835 -0.13896,-0.347266 z m 3.00624,-2.610625 c -0.49549,-0.370197 -0.49247,-0.378394 0.0858,-0.232648 0.32969,0.08309 0.66414,0.255762 0.74322,0.383717 0.22379,0.362095 -0.26026,0.273894 -0.82906,-0.151069 z m -0.84433,4.970986 c -0.1819,-0.0734 -0.47955,-0.0734 -0.66145,0 -0.18191,0.0734 -0.0331,0.133453 0.33072,0.133453 0.36381,0 0.51264,-0.06006 0.33073,-0.133453 z m 2.11667,0 c -0.1819,-0.0734 -0.47956,-0.0734 -0.66146,0 -0.1819,0.0734 -0.0331,0.133453 0.33073,0.133453 0.3638,0 0.51263,-0.06006 0.33073,-0.133453 z m 0.3883,-2.136238 c -0.0608,-0.402182 -0.1122,-0.135929 -0.11419,0.591675 -0.002,0.727604 0.0478,1.056664 0.11058,0.731242 0.0628,-0.325422 0.0644,-0.920734 0.004,-1.322917 z m -2.38398,0.131739 c -0.0633,-0.329118 -0.11747,-0.122148 -0.12041,0.459936 -0.003,0.582083 0.0488,0.851363 0.11507,0.598397 0.0662,-0.252965 0.0686,-0.729215 0.005,-1.058333 z m -0.18692,-34.184867 c 0,-0.06417 -0.11907,-0.190262 -0.26459,-0.280199 -0.14552,-0.08994 -0.26458,-0.03743 -0.26458,0.116676 0,0.154109 0.11906,0.280199 0.26458,0.280199 0.14552,0 0.26459,-0.0525 0.26459,-0.116676 z m 1.5875,-1.631423 c 0,-0.05719 -0.1786,-0.103984 -0.39688,-0.103984 -0.21828,0 -0.39687,0.115327 -0.39687,0.256281 0,0.140952 0.17859,0.187746 0.39687,0.103984 0.21828,-0.08376 0.39688,-0.199088 0.39688,-0.256281 z m -1.67135,-0.418176 c -0.0845,-0.211066 -0.14715,-0.148373 -0.15985,0.159853 -0.0115,0.278913 0.051,0.435184 0.13897,0.347266 0.0879,-0.08792 0.0973,-0.316124 0.0209,-0.507119 z m 1.88301,-0.797058 c 0.43226,-0.432257 0.40172,-1.27 -0.0463,-1.27 -0.20009,0 -0.75339,-0.07792 -1.22956,-0.173151 -0.84729,-0.169458 -0.86166,-0.156813 -0.67355,0.592662 0.28342,1.129233 1.24929,1.550619 1.94942,0.850489 z m -1.53458,-4.180416 c 0,-1.411111 -0.10779,-2.38125 -0.26458,-2.38125 -0.15679,0 -0.26459,0.970139 -0.26459,2.38125 0,1.41111 0.1078,2.38125 0.26459,2.38125 0.15679,0 0.26458,-0.97014 0.26458,-2.38125 z m 1.32292,-0.132292 c 0,-1.322917 -0.10895,-2.248958 -0.26459,-2.248958 -0.15563,0 -0.26458,0.926041 -0.26458,2.248958 0,1.322917 0.10895,2.248958 0.26458,2.248958 0.15564,0 0.26459,-0.926041 0.26459,-2.248958 z m -0.33749,-3.100208 c 0.72537,-0.262297 0.87619,-0.44356 0.81253,-0.976513 -0.0682,-0.570939 -0.21319,-0.656432 -1.1365,-0.670105 l -1.05833,-0.01566 -0.1323,-2.513541 -0.13229,-2.513542 -0.44444,0.863309 c -0.38094,0.73995 -0.58313,2.513732 -0.50327,4.415129 0.0169,0.401285 0.0922,0.445381 0.33917,0.198437 0.46646,-0.466458 0.74083,-0.388067 0.74083,0.211667 0,0.291041 -0.12609,0.529166 -0.2802,0.529166 -0.1541,0 -0.19524,-0.137459 -0.0914,-0.305464 0.11713,-0.18951 0.0726,-0.233632 -0.11739,-0.116234 -0.42512,0.262739 0.10629,1.215448 0.67797,1.215448 0.23921,0 0.83574,-0.144938 1.32563,-0.322082 z m -0.55005,-2.715699 c -0.0991,-0.258247 0.004,-0.37933 0.30242,-0.354954 0.96398,0.07876 1.37887,-0.06327 1.37887,-0.47203 0,-0.269238 -0.14557,-0.369324 -0.39688,-0.272886 -0.21828,0.08376 -0.39687,0.03697 -0.39687,-0.103984 0,-0.140954 -0.16201,-0.256281 -0.36003,-0.256281 -0.25132,0 -0.34018,-0.299574 -0.29431,-0.992187 0.0361,-0.545704 0.005,-0.829887 -0.0689,-0.631521 -0.11363,0.304501 -0.17017,0.304501 -0.36309,0 -0.14061,-0.221938 -0.23006,0.377177 -0.23256,1.557562 -0.003,1.228466 0.10127,1.91823 0.28884,1.91823 0.16109,0 0.22521,-0.176377 0.14249,-0.391949 z m 1.4167,-3.047635 c 0,-0.145521 -0.11906,-0.264583 -0.26458,-0.264583 -0.14552,0 -0.26458,0.119062 -0.26458,0.264583 0,0.145521 0.11906,0.264583 0.26458,0.264583 0.14552,0 0.26458,-0.119062 0.26458,-0.264583 z m -0.26458,-1.439593 c 0,-0.279262 -0.50776,-0.396586 -0.65879,-0.152222 -0.0914,0.147894 0.0194,0.268898 0.2463,0.268898 0.22687,0 0.41249,-0.0525 0.41249,-0.116676 z m -1.85208,-3.852074 c 0,-0.145521 -0.12609,-0.264583 -0.2802,-0.264583 -0.15411,0 -0.20661,0.119062 -0.11668,0.264583 0.0899,0.145521 0.21603,0.264584 0.2802,0.264584 0.0642,0 0.11668,-0.119063 0.11668,-0.264584 z m -0.07786,-5.8869789 c -0.0631,-0.327422 -0.11466,-0.05953 -0.11466,0.595312 0,0.654844 0.0516,0.9227349 0.11466,0.595313 0.0631,-0.327422 0.0631,-0.863203 0,-1.190625 z m 1.47543,-5.0606423 c 1.15951,-0.4961228 2.26175,-1.7265094 2.46727,-2.75413794 l 0.17007,-0.8503232 h -4.29509 -4.29509 l 0.18157,0.7276042 c 0.61428,2.46152724 3.44459,3.87237784 5.77127,2.87685694 z m 0.52067,-4.06589184 c -1.20055,-0.049025 -3.16508,-0.049025 -4.36562,0 -1.20055,0.049027 -0.21829,0.089138 2.18281,0.089138 2.40109,0 3.38336,-0.040111 2.18281,-0.089138 z m 2.05052,-0.47310936 c 0,-0.077433 -0.16513,-0.535985 -0.36694,-1.0190004 -0.38811,-0.9288701 -1.32055,-1.6989029 -2.74521,-2.2670612 -1.91011,-0.7617566 -5.08994,1.1202908 -5.08994,3.0125829 0,0.35815058 0.55553,0.41426868 4.10105,0.41426868 2.25557,0 4.10104,-0.063354 4.10104,-0.14078998 z m -2.57969,-4.390877 c -0.41965,-0.3291073 -0.429,-0.319749 -0.0999,0.099896 0.644899,0.7164863 0.62901,0.318565 0.0999,-0.099896 z m -1.46652,-2.6751439 c -0.0633,-0.3291179 -0.11747,-0.1221476 -0.1204,0.4599358 -0.003,0.5820833 0.0489,0.851363 0.11506,0.5983975 0.0662,-0.2529655 0.0686,-0.7292155 0.005,-1.0583333 z m -0.0047,-2.5166277 c -0.0666,-0.254661 -0.121,-0.0463 -0.121,0.463021 0,0.5093233 0.0545,0.7176826 0.121,0.4630212 0.0666,-0.2546615 0.0666,-0.6713802 0,-0.9260422 z m 0.004,-2.778125 c -0.0631,-0.327422 -0.11466,-0.05953 -0.11466,0.595313 0,0.654844 0.0516,0.922734 0.11466,0.595312 0.0631,-0.327421 0.0631,-0.863203 0,-1.190625 z m 0.007,-3.697174 c -0.0559,-0.622311 -0.10241,-0.178972 -0.10337,0.985195 -10e-4,1.164167 0.0448,1.673328 0.10162,1.131473 0.0568,-0.541856 0.0576,-1.494358 0.002,-2.116668 z m -0.007,-2.914325 c -0.0633,-0.329118 -0.11747,-0.122147 -0.12041,0.459936 -0.003,0.582083 0.0488,0.851363 0.11507,0.598398 0.0662,-0.252966 0.0686,-0.729216 0.005,-1.058334 z m 0,-2.38125 c -0.0633,-0.329118 -0.11747,-0.122147 -0.12041,0.459936 -0.003,0.582083 0.0488,0.851363 0.11507,0.598398 0.0662,-0.252966 0.0686,-0.729216 0.005,-1.058334 z m 0.005,-3.173346 c -0.0589,-0.475549 -0.10828,-0.15026 -0.10977,0.722865 -0.002,0.873125 0.0467,1.262211 0.10707,0.864635 0.0604,-0.397576 0.0616,-1.111951 0.003,-1.5875 z m -0.011,-5.544453 c -0.0845,-0.211066 -0.14716,-0.148373 -0.15985,0.159854 -0.0115,0.278913 0.051,0.435184 0.13896,0.347265 0.0879,-0.08792 0.0973,-0.316124 0.0209,-0.507119 z m 0.006,-2.130118 c -0.0633,-0.329118 -0.11747,-0.122147 -0.12041,0.459936 -0.003,0.582083 0.0488,0.851363 0.11507,0.598398 0.0662,-0.252966 0.0686,-0.729216 0.005,-1.058334 z m 0.07741,-3.641106 c 0,-0.145521 -0.0525,-0.264583 -0.11668,-0.264583 -0.0642,0 -0.19026,0.119062 -0.2802,0.264583 -0.0899,0.145521 -0.0374,0.264584 0.11668,0.264584 0.15411,0 0.2802,-0.119063 0.2802,-0.264584 z m 2.06809,-2.711979 c 0.0732,-0.635918 -0.0102,-0.731295 -0.66146,-0.756891 -0.93282,-0.03666 -2.03767,0.0515 -2.16368,0.172654 -0.0526,0.05055 0.23879,0.401802 0.64748,0.780561 0.99602,0.923078 2.0599,0.827166 2.17766,-0.196324 z m -1.87475,-5.035066 c -0.0555,-0.614074 -0.10023,-0.04493 -0.0994,1.264753 7.9e-4,1.309688 0.0462,1.812111 0.10089,1.116497 0.0547,-0.695616 0.054,-1.767178 -0.002,-2.38125 z m 1.39416,1.264753 c 0,-1.322916 -0.10895,-2.248958 -0.26459,-2.248958 -0.15563,0 -0.26458,0.926042 -0.26458,2.248958 0,1.322917 0.10895,2.248959 0.26458,2.248959 0.15564,0 0.26459,-0.926042 0.26459,-2.248959 z m -0.34095,-3.098958 c 1.2569,-0.454499 1.05163,-1.111232 -0.37985,-1.21529 l -1.1131,-0.08092 -0.0752,-2.69721 -0.0752,-2.69721 -0.49041,0.986374 c -0.39154,0.787514 -0.47155,1.442914 -0.39688,3.250827 0.11661,2.82297 0.49481,3.189619 2.53072,2.453424 z m -0.44875,-2.655729 c 0.003,-0.373174 0.079,-0.477375 0.20499,-0.279249 0.27409,0.43113 1.22763,0.257921 1.32512,-0.240705 0.0442,-0.226147 -0.1595,-0.466175 -0.46302,-0.545547 -0.30507,-0.07978 -0.54198,-0.01378 -0.54198,0.151 0,0.206111 -0.0906,0.2021 -0.30628,-0.01355 -0.23199,-0.231992 -0.22932,-0.399032 0.011,-0.688645 0.24832,-0.299214 0.24301,-0.412342 -0.0245,-0.520237 -0.26697,-0.107701 -0.25491,-0.205663 0.0551,-0.447564 0.34353,-0.26806 0.33694,-0.290547 -0.0491,-0.167298 -0.24526,0.07831 -0.50375,2.48e-4 -0.57443,-0.17348 -0.0707,-0.173725 -0.1379,0.547339 -0.14938,1.602365 -0.0122,1.116356 0.0897,1.918229 0.24369,1.918229 0.14552,0 0.26641,-0.267891 0.26864,-0.595313 z m 0.45346,-3.533291 c -0.0879,-0.08792 -0.31613,-0.09732 -0.50712,-0.02088 -0.21107,0.08446 -0.14838,0.147156 0.15985,0.159851 0.27891,0.01148 0.43519,-0.05104 0.34727,-0.138965 z m -1.25126,-4.602647 c 0,-0.145521 -0.12609,-0.264583 -0.2802,-0.264583 -0.15411,0 -0.20661,0.119062 -0.11668,0.264583 0.0899,0.145521 0.21603,0.264583 0.2802,0.264583 0.0642,0 0.11668,-0.119062 0.11668,-0.264583 z m 0.90751,-8.965854 c 0.0797,-0.129033 -0.0323,-0.381736 -0.24897,-0.561564 -0.32785,-0.27209 -0.39396,-0.232718 -0.39396,0.234604 0,0.567628 0.37601,0.758846 0.64293,0.32696 z m 0.4154,-1.485188 c 0.16266,-0.427822 0.45629,-0.661458 0.8313,-0.661458 0.3189,0 0.50559,-0.07423 0.41487,-0.164947 -0.0907,-0.09072 0.11374,-0.537205 0.45436,-0.992188 0.34062,-0.454982 0.70068,-1.095131 0.80014,-1.422553 l 0.18083,-0.595312 h -4.269 -4.26899 l 0.18484,0.595312 c 0.5278,1.699966 2.19348,2.871519 4.18866,2.946099 0.85373,0.03191 1.07826,0.138583 1.04937,0.498552 -0.0526,0.655942 0.1415,0.564831 0.43362,-0.203505 z m 0.59532,-4.562472 c -1.20055,-0.04903 -3.16508,-0.04903 -4.36563,0 -1.20055,0.04903 -0.21828,0.08914 2.18281,0.08914 2.4011,0 3.38336,-0.04011 2.18282,-0.08914 z m 1.85807,-1.192216 c -0.22307,-0.92921 -1.59754,-2.219496 -2.89018,-2.713163 -1.32635,-0.506537 -2.13692,-0.321662 -3.73067,0.850898 -0.733,0.539281 -1.65337,1.826373 -1.65337,2.312147 0,0.07999 1.89385,0.145431 4.20856,0.145431 h 4.20857 z m -2.98197,19.645313 c 0,-0.14552 0.12609,-0.264583 0.2802,-0.264583 0.15411,0 0.20661,0.119063 0.11667,0.264583 -0.0899,0.145521 -0.21602,0.264584 -0.2802,0.264584 -0.0642,0 -0.11667,-0.119063 -0.11667,-0.264584 z"
         id="path179"
         sodipodi:nodetypes="csssscsssssssssssscsssssccssscsssscsssssssscssssssccsssscssssscsssscsssssssssscscsscsccssccssssssssscssssssccccsssssssccccsccccsscccccssssssscsssscccccssccccsssssssssssscssssssccssssssssssssssccsssssssssssssssssccsssssccssssccssssscsscssssscsscssssscssssscssssscsssssscccccssssssssssssssssssssssssscsscsscssssssccsssssscsssssssssssssssssscsssssscssssssssssssscccsssssssssssscscsscssccssssssssssssssssssssssssssssssscccssscsscssssssssssssssssssssssssssscsssscsssscssssccsscsscsssssccssssssscscscsssssssscsssssccsscscsssssssssssscsssscssssscsscsssscssccccccsccssssssssssssssssssscsscccccssssssssssssssscsssscsssssssssssssssssssscsssccssccssssssssssssssssssssssssssssssssssscsccccsscsssssccscssssscsssssssssssssssscsscssssscscsssssssscccccsscccccssssccsccccsccccccccccccsccssccsccsscsssssssssssscccsccssssssscscsssscsssssssscscscssssssssscsssssssssscssssssssssssssss" /></g></g></svg>
